<svg version="1.1" xmlns="http://www.w3.org/2000/svg" xmlns:xlink="http://www.w3.org/1999/xlink" width="715" height="68"><defs></defs><g><g transform="translate(2,-158) scale(1,1)"><rect fill="#ffffff" stroke="none" x="8" y="176" width="74" height="32"></rect></g><g transform="translate(2,-158) scale(1,1)"><path fill="none" stroke="#000000" d="M 8 176 L 82 176 L 82 208 L 8 208 L 8 176 Z Z" stroke-miterlimit="10"></path></g><g transform="translate(2,-158) scale(1,1)"><g><path fill="none" stroke="none"></path><text fill="#000000" stroke="none" font-family="Arial" font-size="13px" font-style="normal" font-weight="normal" text-decoration="none" x="31" y="198.5">Start</text></g></g><g transform="translate(2,-158) scale(1,1)"><path fill="#ffffff" stroke="none" d="M 616.5 176 L 686.5 176 Q 703 176 703 192.5 L 703 191.5 Q 703 208 686.5 208 L 616.5 208 Q 600 208 600 191.5 L 600 192.5 Q 600 176 616.5 176 Z"></path></g><g transform="translate(2,-158) scale(1,1)"><path fill="none" stroke="#000000" d="M 616.5 176 L 686.5 176 Q 703 176 703 192.5 L 703 191.5 Q 703 208 686.5 208 L 616.5 208 Q 600 208 600 191.5 L 600 192.5 Q 600 176 616.5 176 Z" stroke-miterlimit="10"></path></g><g transform="translate(2,-158) scale(1,1)"><g><path fill="none" stroke="none"></path><text fill="#000000" stroke="none" font-family="Arial" font-size="13px" font-style="normal" font-weight="normal" text-decoration="none" x="640" y="198.5">Slut</text></g></g><g transform="translate(2,-158) scale(1,1)"><path fill="#ffffff" stroke="none" d="M 144 192 L 161 168 L 231 168 L 248 192 L 231 216 L 161 216 L 144 192"></path></g><g transform="translate(2,-158) scale(1,1)"><path fill="none" stroke="#000000" d="M 144 192 L 161 168 L 231 168 L 248 192 L 231 216 L 161 216 L 144 192 L 144 192" stroke-miterlimit="10"></path></g><g transform="translate(2,-158) scale(1,1)"><g><path fill="none" stroke="none"></path><text fill="#000000" stroke="none" font-family="Arial" font-size="13px" font-style="normal" font-weight="normal" text-decoration="none" x="162" y="184">Initialisering</text><text fill="#000000" stroke="none" font-family="Arial" font-size="13px" font-style="normal" font-weight="normal" text-decoration="none" x="191" y="197">af</text><text fill="#000000" stroke="none" font-family="Arial" font-size="13px" font-style="normal" font-weight="normal" text-decoration="none" x="174.5" y="210">variable</text></g></g><g transform="translate(2,-158) scale(1,1)"><path fill="#ffffff" stroke="none" d="M 452 168 L 552 168 L 532 213 L 432 213 L 452 168"></path></g><g transform="translate(2,-158) scale(1,1)"><path fill="none" stroke="#000000" d="M 452 168 L 552 168 L 532 213 L 432 213 L 452 168 L 452 168" stroke-miterlimit="10"></path></g><g transform="translate(2,-158) scale(1,1)"><g><path fill="none" stroke="none"></path><text fill="#000000" stroke="none" font-family="Arial" font-size="13px" font-style="normal" font-weight="normal" text-decoration="none" x="467" y="190.5">output til</text><text fill="#000000" stroke="none" font-family="Arial" font-size="13px" font-style="normal" font-weight="normal" text-decoration="none" x="474" y="203.5">bruger</text></g></g><g transform="translate(2,-158) scale(1,1)"><path fill="none" stroke="#000000" d="M 82 195 L 144 195" stroke-miterlimit="10"></path></g><g transform="translate(2,-158) scale(1,1)"><path fill="#000000" stroke="none" d="M 133.83732514237585 199.209517756016 L 144 195 L 133.83732514237585 190.790482243984"></path></g><g transform="translate(2,-158) scale(1,1)"><path fill="none" stroke="#000000" d="M 133.83732514237585 199.209517756016 L 144 195 L 133.83732514237585 190.790482243984 L 133.83732514237585 199.209517756016" stroke-miterlimit="10"></path></g><g transform="translate(2,-158) scale(1,1)"><path fill="none" stroke="#000000" d="M 552 191 L 600 191" stroke-miterlimit="10"></path></g><g transform="translate(2,-158) scale(1,1)"><path fill="#000000" stroke="none" d="M 589.8373251423759 195.209517756016 L 600 191 L 589.8373251423758 186.790482243984"></path></g><g transform="translate(2,-158) scale(1,1)"><path fill="none" stroke="#000000" d="M 589.8373251423759 195.209517756016 L 600 191 L 589.8373251423758 186.790482243984 L 589.8373251423759 195.209517756016" stroke-miterlimit="10"></path></g><g transform="translate(2,-158) scale(1,1)"><rect fill="#ffffff" stroke="none" x="296" y="168" width="87" height="47"></rect></g><g transform="translate(2,-158) scale(1,1)"><path fill="none" stroke="#000000" d="M 296 168 L 383 168 L 383 215 L 296 215 L 296 168 Z Z" stroke-miterlimit="10"></path></g><g transform="translate(2,-158) scale(1,1)"><g><path fill="none" stroke="none"></path><text fill="#000000" stroke="none" font-family="Arial" font-size="13px" font-style="normal" font-weight="normal" text-decoration="none" x="306" y="190.5">typecasting</text><text fill="#000000" stroke="none" font-family="Arial" font-size="13px" font-style="normal" font-weight="normal" text-decoration="none" x="309" y="203.5">af variable </text></g></g><g transform="translate(2,-158) scale(1,1)"><path fill="none" stroke="#000000" d="M 248 192 L 296 192" stroke-miterlimit="10"></path></g><g transform="translate(2,-158) scale(1,1)"><path fill="#000000" stroke="none" d="M 285.83732514237585 196.209517756016 L 296 192 L 285.83732514237585 187.790482243984"></path></g><g transform="translate(2,-158) scale(1,1)"><path fill="none" stroke="#000000" d="M 285.83732514237585 196.209517756016 L 296 192 L 285.83732514237585 187.790482243984 L 285.83732514237585 196.209517756016" stroke-miterlimit="10"></path></g><g transform="translate(2,-158) scale(1,1)"><path fill="none" stroke="#000000" d="M 383 191 L 432 191" stroke-miterlimit="10"></path></g><g transform="translate(2,-158) scale(1,1)"><path fill="#000000" stroke="none" d="M 421.83732514237585 195.209517756016 L 432 191 L 421.83732514237585 186.790482243984"></path></g><g transform="translate(2,-158) scale(1,1)"><path fill="none" stroke="#000000" d="M 421.83732514237585 195.209517756016 L 432 191 L 421.83732514237585 186.790482243984 L 421.83732514237585 195.209517756016" stroke-miterlimit="10"></path></g></g></svg>