<svg version="1.1" xmlns="http://www.w3.org/2000/svg" xmlns:xlink="http://www.w3.org/1999/xlink" width="323" height="404"><defs/><g><g transform="translate(-118,-30) scale(1,1)"><path fill="#ffffff" stroke="none" d="M 176.5 40 L 231.5 40 Q 248 40 248 56.5 L 248 55.5 Q 248 72 231.5 72 L 176.5 72 Q 160 72 160 55.5 L 160 56.5 Q 160 40 176.5 40 Z"/></g><g transform="translate(-118,-30) scale(1,1)"><path fill="none" stroke="#000000" d="M 176.5 40 L 231.5 40 Q 248 40 248 56.5 L 248 55.5 Q 248 72 231.5 72 L 176.5 72 Q 160 72 160 55.5 L 160 56.5 Q 160 40 176.5 40 Z" stroke-miterlimit="10"/></g><g transform="translate(-118,-30) scale(1,1)"><g><path fill="none" stroke="none"/><text fill="#000000" stroke="none" font-family="Arial" font-size="13px" font-style="normal" font-weight="normal" text-decoration="none" x="191" y="62.5">start</text></g></g><g transform="translate(-118,-30) scale(1,1)"><path fill="#ffffff" stroke="none" d="M 157 96 L 264 96 L 243 141 L 136 141 L 157 96"/></g><g transform="translate(-118,-30) scale(1,1)"><path fill="none" stroke="#000000" d="M 157 96 L 264 96 L 243 141 L 136 141 L 157 96 L 157 96" stroke-miterlimit="10"/></g><g transform="translate(-118,-30) scale(1,1)"><g><path fill="none" stroke="none"/><text fill="#000000" stroke="none" font-family="Arial" font-size="13px" font-style="normal" font-weight="normal" text-decoration="none" x="168" y="118.5">enum days</text><text fill="#000000" stroke="none" font-family="Arial" font-size="13px" font-style="normal" font-weight="normal" text-decoration="none" x="169" y="131.5">{mon..sun}</text></g></g><g transform="translate(-118,-30) scale(1,1)"><path fill="#ffffff" stroke="none" d="M 144 181 L 247 168 L 247 247 L 144 247 L 144 181"/></g><g transform="translate(-118,-30) scale(1,1)"><path fill="none" stroke="#000000" d="M 144 181 L 247 168 L 247 247 L 144 247 L 144 181 L 144 181" stroke-miterlimit="10"/></g><g transform="translate(-118,-30) scale(1,1)"><g><path fill="none" stroke="none"/><text fill="#000000" stroke="none" font-family="Arial" font-size="13px" font-style="normal" font-weight="normal" text-decoration="none" x="163" y="220.5">Indtast dag</text></g></g><g transform="translate(-118,-30) scale(1,1)"><path fill="#ffffff" stroke="none" d="M 128 311.5 L 190.5 272 L 253 311.5 L 190.5 351 L 128 311.5"/></g><g transform="translate(-118,-30) scale(1,1)"><path fill="none" stroke="#000000" d="M 128 311.5 L 190.5 272 L 253 311.5 L 190.5 351 L 128 311.5 L 128 311.5" stroke-miterlimit="10"/></g><g transform="translate(-118,-30) scale(1,1)"><g><path fill="none" stroke="none"/><text fill="#000000" stroke="none" font-family="Arial" font-size="13px" font-style="normal" font-weight="normal" text-decoration="none" x="178.5" y="305">hvis</text><text fill="#000000" stroke="none" font-family="Arial" font-size="13px" font-style="normal" font-weight="normal" text-decoration="none" x="159" y="318">indtastning</text><text fill="#000000" stroke="none" font-family="Arial" font-size="13px" font-style="normal" font-weight="normal" text-decoration="none" x="166" y="331">er gyldig</text></g></g><g transform="translate(-118,-30) scale(1,1)"><rect fill="#ffffff" stroke="none" x="304" y="288" width="127" height="45"/></g><g transform="translate(-118,-30) scale(1,1)"><path fill="none" stroke="#000000" d="M 304 288 L 431 288 L 431 333 L 304 333 L 304 288 Z Z" stroke-miterlimit="10"/></g><g transform="translate(-118,-30) scale(1,1)"><g><path fill="none" stroke="none"/><text fill="#000000" stroke="none" font-family="Arial" font-size="13px" font-style="normal" font-weight="normal" text-decoration="none" x="316.5" y="310.5">udskriv: dag ... er</text><text fill="#000000" stroke="none" font-family="Arial" font-size="13px" font-style="normal" font-weight="normal" text-decoration="none" x="336.5" y="323.5">nr .. i ugen</text></g></g><g transform="translate(-118,-30) scale(1,1)"><path fill="#ffffff" stroke="none" d="M 152.5 392 L 222.5 392 Q 239 392 239 408.5 L 239 407.5 Q 239 424 222.5 424 L 152.5 424 Q 136 424 136 407.5 L 136 408.5 Q 136 392 152.5 392 Z"/></g><g transform="translate(-118,-30) scale(1,1)"><path fill="none" stroke="#000000" d="M 152.5 392 L 222.5 392 Q 239 392 239 408.5 L 239 407.5 Q 239 424 222.5 424 L 152.5 424 Q 136 424 136 407.5 L 136 408.5 Q 136 392 152.5 392 Z" stroke-miterlimit="10"/></g><g transform="translate(-118,-30) scale(1,1)"><g><path fill="none" stroke="none"/><text fill="#000000" stroke="none" font-family="Arial" font-size="13px" font-style="normal" font-weight="normal" text-decoration="none" x="177" y="414.5">end</text></g></g><g transform="translate(-118,-30) scale(1,1)"><path fill="none" stroke="#000000" d="M 203 72 L 203 96" stroke-miterlimit="10"/></g><g transform="translate(-118,-30) scale(1,1)"><path fill="#000000" stroke="none" d="M 198.790482243984 85.83732514237585 L 203 96 L 207.209517756016 85.83732514237585"/></g><g transform="translate(-118,-30) scale(1,1)"><path fill="none" stroke="#000000" d="M 198.790482243984 85.83732514237585 L 203 96 L 207.209517756016 85.83732514237585 L 198.790482243984 85.83732514237585" stroke-miterlimit="10"/></g><g transform="translate(-118,-30) scale(1,1)"><path fill="none" stroke="#000000" d="M 199 141 L 199 168" stroke-miterlimit="10"/></g><g transform="translate(-118,-30) scale(1,1)"><path fill="#000000" stroke="none" d="M 194.790482243984 157.83732514237585 L 199 168 L 203.209517756016 157.83732514237585"/></g><g transform="translate(-118,-30) scale(1,1)"><path fill="none" stroke="#000000" d="M 194.790482243984 157.83732514237585 L 199 168 L 203.209517756016 157.83732514237585 L 194.790482243984 157.83732514237585" stroke-miterlimit="10"/></g><g transform="translate(-118,-30) scale(1,1)"><path fill="none" stroke="#000000" d="M 193 247 L 193 272" stroke-miterlimit="10"/></g><g transform="translate(-118,-30) scale(1,1)"><path fill="#000000" stroke="none" d="M 188.790482243984 261.83732514237585 L 193 272 L 197.209517756016 261.83732514237585"/></g><g transform="translate(-118,-30) scale(1,1)"><path fill="none" stroke="#000000" d="M 188.790482243984 261.83732514237585 L 193 272 L 197.209517756016 261.83732514237585 L 188.790482243984 261.83732514237585" stroke-miterlimit="10"/></g><g transform="translate(-118,-30) scale(1,1)"><path fill="none" stroke="#000000" d="M 253 311 L 304 311" stroke-miterlimit="10"/></g><g transform="translate(-118,-30) scale(1,1)"><path fill="#000000" stroke="none" d="M 293.83732514237585 315.209517756016 L 304 311 L 293.83732514237585 306.790482243984"/></g><g transform="translate(-118,-30) scale(1,1)"><path fill="none" stroke="#000000" d="M 293.83732514237585 315.209517756016 L 304 311 L 293.83732514237585 306.790482243984 L 293.83732514237585 315.209517756016" stroke-miterlimit="10"/></g><g transform="translate(-118,-30) scale(1,1)"><g><path fill="none" stroke="none"/><text fill="#000000" stroke="none" font-family="Arial" font-size="13px" font-style="normal" font-weight="normal" text-decoration="none" x="267" y="303">true</text></g></g><g transform="translate(-118,-30) scale(1,1)"><path fill="none" stroke="#000000" d="M 188 351 L 188 392" stroke-miterlimit="10"/></g><g transform="translate(-118,-30) scale(1,1)"><path fill="#000000" stroke="none" d="M 183.790482243984 381.83732514237585 L 188 392 L 192.209517756016 381.83732514237585"/></g><g transform="translate(-118,-30) scale(1,1)"><path fill="none" stroke="#000000" d="M 183.790482243984 381.83732514237585 L 188 392 L 192.209517756016 381.83732514237585 L 183.790482243984 381.83732514237585" stroke-miterlimit="10"/></g><g transform="translate(-118,-30) scale(1,1)"><g><path fill="none" stroke="none"/><text fill="#000000" stroke="none" font-family="Arial" font-size="13px" font-style="normal" font-weight="normal" text-decoration="none" x="199" y="377">false</text></g></g><g transform="translate(-118,-30) scale(1,1)"><path fill="none" stroke="#000000" d="M 360 333 L 360 400 M 360 400 A 8 8 0 0 1 352 408 L 239 408" stroke-miterlimit="10"/></g><g transform="translate(-118,-30) scale(1,1)"><path fill="#000000" stroke="none" d="M 249.16267485762415 403.790482243984 L 239 408 L 249.16267485762415 412.209517756016"/></g><g transform="translate(-118,-30) scale(1,1)"><path fill="none" stroke="#000000" d="M 249.16267485762415 403.790482243984 L 239 408 L 249.16267485762415 412.209517756016 L 249.16267485762415 403.790482243984" stroke-miterlimit="10"/></g></g></svg>