<svg version="1.1" xmlns="http://www.w3.org/2000/svg" xmlns:xlink="http://www.w3.org/1999/xlink" width="700" height="1259"><defs></defs><g><g transform="translate(-318,-30) scale(1,1)"><path fill="#ffffff" stroke="none" d="M 376.5 40 L 470.5 40 Q 487 40 487 56.5 L 487 55.5 Q 487 72 470.5 72 L 376.5 72 Q 360 72 360 55.5 L 360 56.5 Q 360 40 376.5 40 Z"></path></g><g transform="translate(-318,-30) scale(1,1)"><path fill="none" stroke="#000000" d="M 376.5 40 L 470.5 40 Q 487 40 487 56.5 L 487 55.5 Q 487 72 470.5 72 L 376.5 72 Q 360 72 360 55.5 L 360 56.5 Q 360 40 376.5 40 Z" stroke-miterlimit="10"></path></g><g transform="translate(-318,-30) scale(1,1)"><g><path fill="none" stroke="none"></path><text fill="#000000" stroke="none" font-family="Arial" font-size="13px" font-style="normal" font-weight="normal" text-decoration="none" x="409.5" y="62.5">Start</text></g></g><g transform="translate(-318,-30) scale(1,1)"><path fill="#ffffff" stroke="none" d="M 361 112 L 528 112 L 495 183 L 328 183 L 361 112"></path></g><g transform="translate(-318,-30) scale(1,1)"><path fill="none" stroke="#000000" d="M 361 112 L 528 112 L 495 183 L 328 183 L 361 112 L 361 112" stroke-miterlimit="10"></path></g><g transform="translate(-318,-30) scale(1,1)"><g><path fill="none" stroke="none"></path><text fill="#000000" stroke="none" font-family="Arial" font-size="13px" font-style="normal" font-weight="normal" text-decoration="none" x="378" y="134.5">int counter = 0;   </text><text fill="#000000" stroke="none" font-family="Arial" font-size="13px" font-style="normal" font-weight="normal" text-decoration="none" x="372.5" y="147.5">int maksBest = 10;</text><text fill="#000000" stroke="none" font-family="Arial" font-size="13px" font-style="normal" font-weight="normal" text-decoration="none" x="372" y="160.5">   int flereVarer = 1;</text></g></g><g transform="translate(-318,-30) scale(1,1)"><path fill="#ffffff" stroke="none" d="M 528 182 L 679 168 L 679 255 L 528 255 L 528 182"></path></g><g transform="translate(-318,-30) scale(1,1)"><path fill="none" stroke="#000000" d="M 528 182 L 679 168 L 679 255 L 528 255 L 528 182 L 528 182" stroke-miterlimit="10"></path></g><g transform="translate(-318,-30) scale(1,1)"><g><path fill="none" stroke="none"></path><text fill="#000000" stroke="none" font-family="Arial" font-size="13px" font-style="normal" font-weight="normal" text-decoration="none" x="551" y="225">vareNr; pris; antal;</text></g></g><g transform="translate(-318,-30) scale(1,1)"><path fill="#ffffff" stroke="none" d="M 562 496 L 656 496 L 638 580 L 544 580 L 562 496"></path></g><g transform="translate(-318,-30) scale(1,1)"><path fill="none" stroke="#000000" d="M 562 496 L 656 496 L 638 580 L 544 580 L 562 496 L 562 496" stroke-miterlimit="10"></path></g><g transform="translate(-318,-30) scale(1,1)"><g><path fill="none" stroke="none"></path><text fill="#000000" stroke="none" font-family="Arial" font-size="13px" font-style="normal" font-weight="normal" text-decoration="none" x="573" y="518.5">gem data</text><text fill="#000000" stroke="none" font-family="Arial" font-size="13px" font-style="normal" font-weight="normal" text-decoration="none" x="576" y="531.5">vareNr[];</text><text fill="#000000" stroke="none" font-family="Arial" font-size="13px" font-style="normal" font-weight="normal" text-decoration="none" x="583.5" y="544.5">pris[];</text><text fill="#000000" stroke="none" font-family="Arial" font-size="13px" font-style="normal" font-weight="normal" text-decoration="none" x="580" y="557.5">antal[];</text></g></g><g transform="translate(-318,-30) scale(1,1)"><rect fill="#ffffff" stroke="none" x="544" y="600" width="103" height="39"></rect></g><g transform="translate(-318,-30) scale(1,1)"><path fill="none" stroke="#000000" d="M 544 600 L 647 600 L 647 639 L 544 639 L 544 600 Z Z" stroke-miterlimit="10"></path></g><g transform="translate(-318,-30) scale(1,1)"><g><path fill="none" stroke="none"></path><text fill="#000000" stroke="none" font-family="Arial" font-size="13px" font-style="normal" font-weight="normal" text-decoration="none" x="566" y="622.5">counter++</text></g></g><g transform="translate(-318,-30) scale(1,1)"><path fill="#ffffff" stroke="none" d="M 552 684 L 639 672 L 639 743 L 552 743 L 552 684"></path></g><g transform="translate(-318,-30) scale(1,1)"><path fill="none" stroke="#000000" d="M 552 684 L 639 672 L 639 743 L 552 743 L 552 684 L 552 684" stroke-miterlimit="10"></path></g><g transform="translate(-318,-30) scale(1,1)"><g><path fill="none" stroke="none"></path><text fill="#000000" stroke="none" font-family="Arial" font-size="13px" font-style="normal" font-weight="normal" text-decoration="none" x="568" y="720">flereVarer</text></g></g><g transform="translate(-318,-30) scale(1,1)"><path fill="#ffffff" stroke="none" d="M 344 704 L 420 648 L 496 704 L 420 760 L 344 704"></path></g><g transform="translate(-318,-30) scale(1,1)"><path fill="none" stroke="#000000" d="M 344 704 L 420 648 L 496 704 L 420 760 L 344 704 L 344 704" stroke-miterlimit="10"></path></g><g transform="translate(-318,-30) scale(1,1)"><g><path fill="none" stroke="none"></path><text fill="#000000" stroke="none" font-family="Arial" font-size="13px" font-style="normal" font-weight="normal" text-decoration="none" x="392.5" y="691">counter &lt;</text><text fill="#000000" stroke="none" font-family="Arial" font-size="13px" font-style="normal" font-weight="normal" text-decoration="none" x="390.5" y="704">maksBest</text><text fill="#000000" stroke="none" font-family="Arial" font-size="13px" font-style="normal" font-weight="normal" text-decoration="none" x="411" y="717">&amp;&amp;</text><text fill="#000000" stroke="none" font-family="Arial" font-size="13px" font-style="normal" font-weight="normal" text-decoration="none" x="392.5" y="730">flereVarer</text></g></g><g transform="translate(-318,-30) scale(1,1)"><path fill="none" stroke="#000000" d="M 424 72 L 424 112" stroke-miterlimit="10"></path></g><g transform="translate(-318,-30) scale(1,1)"><path fill="#000000" stroke="none" d="M 419.790482243984 101.83732514237585 L 424 112 L 428.209517756016 101.83732514237585"></path></g><g transform="translate(-318,-30) scale(1,1)"><path fill="none" stroke="#000000" d="M 419.790482243984 101.83732514237585 L 424 112 L 428.209517756016 101.83732514237585 L 419.790482243984 101.83732514237585" stroke-miterlimit="10"></path></g><g transform="translate(-318,-30) scale(1,1)"><path fill="none" stroke="#000000" d="M 600 580 L 600 600" stroke-miterlimit="10"></path></g><g transform="translate(-318,-30) scale(1,1)"><path fill="#000000" stroke="none" d="M 595.790482243984 589.8373251423759 L 600 600 L 604.209517756016 589.8373251423759"></path></g><g transform="translate(-318,-30) scale(1,1)"><path fill="none" stroke="#000000" d="M 595.790482243984 589.8373251423759 L 600 600 L 604.209517756016 589.8373251423759 L 595.790482243984 589.8373251423759" stroke-miterlimit="10"></path></g><g transform="translate(-318,-30) scale(1,1)"><path fill="none" stroke="#000000" d="M 600 639 L 600 672" stroke-miterlimit="10"></path></g><g transform="translate(-318,-30) scale(1,1)"><path fill="#000000" stroke="none" d="M 595.790482243984 661.8373251423759 L 600 672 L 604.209517756016 661.8373251423759"></path></g><g transform="translate(-318,-30) scale(1,1)"><path fill="none" stroke="#000000" d="M 595.790482243984 661.8373251423759 L 600 672 L 604.209517756016 661.8373251423759 L 595.790482243984 661.8373251423759" stroke-miterlimit="10"></path></g><g transform="translate(-318,-30) scale(1,1)"><path fill="none" stroke="#000000" d="M 552 707 L 496 707" stroke-miterlimit="10"></path></g><g transform="translate(-318,-30) scale(1,1)"><path fill="#000000" stroke="none" d="M 506.16267485762415 702.790482243984 L 496 707 L 506.16267485762415 711.209517756016"></path></g><g transform="translate(-318,-30) scale(1,1)"><path fill="none" stroke="#000000" d="M 506.16267485762415 702.790482243984 L 496 707 L 506.16267485762415 711.209517756016 L 506.16267485762415 702.790482243984" stroke-miterlimit="10"></path></g><g transform="translate(-318,-30) scale(1,1)"><path fill="#ffffff" stroke="none" d="M 408 223.5 C 408 214.9395856 414.9395856 208 423.5 208 C 432.0604144 208 439 214.9395856 439 223.5 C 439 232.0604144 432.0604144 239 423.5 239 C 414.9395856 239 408 232.0604144 408 223.5 Z"></path></g><g transform="translate(-318,-30) scale(1,1)"><path fill="none" stroke="#000000" d="M 408 223.5 C 408 214.9395856 414.9395856 208 423.5 208 C 432.0604144 208 439 214.9395856 439 223.5 C 439 232.0604144 432.0604144 239 423.5 239 C 414.9395856 239 408 232.0604144 408 223.5 Z" stroke-miterlimit="10"></path></g><g transform="translate(-318,-30) scale(1,1)"><g><path fill="none" stroke="none"></path></g></g><g transform="translate(-318,-30) scale(1,1)"><path fill="none" stroke="#000000" d="M 423 648 L 423 239" stroke-miterlimit="10"></path></g><g transform="translate(-318,-30) scale(1,1)"><path fill="#000000" stroke="none" d="M 427.209517756016 249.16267485762415 L 423 239 L 418.790482243984 249.16267485762415"></path></g><g transform="translate(-318,-30) scale(1,1)"><path fill="none" stroke="#000000" d="M 427.209517756016 249.16267485762415 L 423 239 L 418.790482243984 249.16267485762415 L 427.209517756016 249.16267485762415" stroke-miterlimit="10"></path></g><g transform="translate(-318,-30) scale(1,1)"><g><path fill="none" stroke="none"></path><text fill="#000000" stroke="none" font-family="Arial" font-size="13px" font-style="normal" font-weight="normal" text-decoration="none" x="384" y="457">True</text></g></g><g transform="translate(-318,-30) scale(1,1)"><path fill="none" stroke="#000000" d="M 439 222 L 528 222" stroke-miterlimit="10"></path></g><g transform="translate(-318,-30) scale(1,1)"><path fill="#000000" stroke="none" d="M 517.8373251423759 226.209517756016 L 528 222 L 517.8373251423758 217.790482243984"></path></g><g transform="translate(-318,-30) scale(1,1)"><path fill="none" stroke="#000000" d="M 517.8373251423759 226.209517756016 L 528 222 L 517.8373251423758 217.790482243984 L 517.8373251423759 226.209517756016" stroke-miterlimit="10"></path></g><g transform="translate(-318,-30) scale(1,1)"><path fill="none" stroke="#000000" d="M 424 183 L 424 208" stroke-miterlimit="10"></path></g><g transform="translate(-318,-30) scale(1,1)"><path fill="#000000" stroke="none" d="M 419.790482243984 197.83732514237585 L 424 208 L 428.209517756016 197.83732514237585"></path></g><g transform="translate(-318,-30) scale(1,1)"><path fill="none" stroke="#000000" d="M 419.790482243984 197.83732514237585 L 424 208 L 428.209517756016 197.83732514237585 L 419.790482243984 197.83732514237585" stroke-miterlimit="10"></path></g><g transform="translate(-318,-30) scale(1,1)"><path fill="#ffffff" stroke="none" d="M 360 839.5 L 419.25048828125 792 L 478.5009765625 839.5 L 419.25048828125 887 L 360 839.5"></path></g><g transform="translate(-318,-30) scale(1,1)"><path fill="none" stroke="#000000" d="M 360 839.5 L 419.25048828125 792 L 478.5009765625 839.5 L 419.25048828125 887 L 360 839.5 L 360 839.5" stroke-miterlimit="10"></path></g><g transform="translate(-318,-30) scale(1,1)"><g><path fill="none" stroke="none"></path><text fill="#000000" stroke="none" font-family="Arial" font-size="13px" font-style="normal" font-weight="normal" text-decoration="none" x="397.75048828125" y="833">counter</text><text fill="#000000" stroke="none" font-family="Arial" font-size="13px" font-style="normal" font-weight="normal" text-decoration="none" x="411.25048828125" y="846">&gt;=</text><text fill="#000000" stroke="none" font-family="Arial" font-size="13px" font-style="normal" font-weight="normal" text-decoration="none" x="389.75048828125" y="859">maksBest</text></g></g><g transform="translate(-318,-30) scale(1,1)"><path fill="#ffffff" stroke="none" d="M 532 872 L 671 872 L 643 930 L 504 930 L 532 872"></path></g><g transform="translate(-318,-30) scale(1,1)"><path fill="none" stroke="#000000" d="M 532 872 L 671 872 L 643 930 L 504 930 L 532 872 L 532 872" stroke-miterlimit="10"></path></g><g transform="translate(-318,-30) scale(1,1)"><g><path fill="none" stroke="none"></path><text fill="#000000" stroke="none" font-family="Arial" font-size="13px" font-style="normal" font-weight="normal" text-decoration="none" x="569" y="894.5">"Maks</text><text fill="#000000" stroke="none" font-family="Arial" font-size="13px" font-style="normal" font-weight="normal" text-decoration="none" x="554.5" y="907.5">bestilling er</text><text fill="#000000" stroke="none" font-family="Arial" font-size="13px" font-style="normal" font-weight="normal" text-decoration="none" x="569" y="920.5">naaet"</text></g></g><g transform="translate(-318,-30) scale(1,1)"><path fill="none" stroke="#000000" d="M 419 760 L 419 792" stroke-miterlimit="10"></path></g><g transform="translate(-318,-30) scale(1,1)"><path fill="#000000" stroke="none" d="M 414.790482243984 781.8373251423759 L 419 792 L 423.209517756016 781.8373251423759"></path></g><g transform="translate(-318,-30) scale(1,1)"><path fill="none" stroke="#000000" d="M 414.790482243984 781.8373251423759 L 419 792 L 423.209517756016 781.8373251423759 L 414.790482243984 781.8373251423759" stroke-miterlimit="10"></path></g><g transform="translate(-318,-30) scale(1,1)"><g><path fill="none" stroke="none"></path><text fill="#000000" stroke="none" font-family="Arial" font-size="13px" font-style="normal" font-weight="normal" text-decoration="none" x="431" y="774">False</text></g></g><g transform="translate(-318,-30) scale(1,1)"><rect fill="#ffffff" stroke="none" x="384" y="992" width="64" height="32"></rect></g><g transform="translate(-318,-30) scale(1,1)"><path fill="none" stroke="#000000" d="M 384 992 L 448 992 L 448 1024 L 384 1024 L 384 992 Z Z" stroke-miterlimit="10"></path></g><g transform="translate(-318,-30) scale(1,1)"><g><path fill="none" stroke="none"></path><text fill="#000000" stroke="none" font-family="Arial" font-size="13px" font-style="normal" font-weight="normal" text-decoration="none" x="403" y="1014.5">i = 0</text></g></g><g transform="translate(-318,-30) scale(1,1)"><path fill="#ffffff" stroke="none" d="M 368 1179.5 L 415.7041015625 1144 L 463.408203125 1179.5 L 415.7041015625 1215 L 368 1179.5"></path></g><g transform="translate(-318,-30) scale(1,1)"><path fill="none" stroke="#000000" d="M 368 1179.5 L 415.7041015625 1144 L 463.408203125 1179.5 L 415.7041015625 1215 L 368 1179.5 L 368 1179.5" stroke-miterlimit="10"></path></g><g transform="translate(-318,-30) scale(1,1)"><g><path fill="none" stroke="none"></path><text fill="#000000" stroke="none" font-family="Arial" font-size="13px" font-style="normal" font-weight="normal" text-decoration="none" x="408.2041015625" y="1179.5">i &lt;</text><text fill="#000000" stroke="none" font-family="Arial" font-size="13px" font-style="normal" font-weight="normal" text-decoration="none" x="394.2041015625" y="1192.5">counter</text></g></g><g transform="translate(-318,-30) scale(1,1)"><path fill="#ffffff" stroke="none" d="M 392 955.5 C 392 944.7304464 400.7304464 936 411.5 936 C 422.2695536 936 431 944.7304464 431 955.5 C 431 966.2695536 422.2695536 975 411.5 975 C 400.7304464 975 392 966.2695536 392 955.5 Z"></path></g><g transform="translate(-318,-30) scale(1,1)"><path fill="none" stroke="#000000" d="M 392 955.5 C 392 944.7304464 400.7304464 936 411.5 936 C 422.2695536 936 431 944.7304464 431 955.5 C 431 966.2695536 422.2695536 975 411.5 975 C 400.7304464 975 392 966.2695536 392 955.5 Z" stroke-miterlimit="10"></path></g><g transform="translate(-318,-30) scale(1,1)"><g><path fill="none" stroke="none"></path></g></g><g transform="translate(-318,-30) scale(1,1)"><path fill="none" stroke="#000000" d="M 414 887 L 414 936" stroke-miterlimit="10"></path></g><g transform="translate(-318,-30) scale(1,1)"><path fill="#000000" stroke="none" d="M 409.790482243984 925.8373251423759 L 414 936 L 418.209517756016 925.8373251423759"></path></g><g transform="translate(-318,-30) scale(1,1)"><path fill="none" stroke="#000000" d="M 409.790482243984 925.8373251423759 L 414 936 L 418.209517756016 925.8373251423759 L 409.790482243984 925.8373251423759" stroke-miterlimit="10"></path></g><g transform="translate(-318,-30) scale(1,1)"><g><path fill="none" stroke="none"></path><text fill="#000000" stroke="none" font-family="Arial" font-size="13px" font-style="normal" font-weight="normal" text-decoration="none" x="420" y="917">False</text></g></g><g transform="translate(-318,-30) scale(1,1)"><path fill="none" stroke="#000000" d="M 479 840 L 576 840 M 576 840 A 8 8 0 0 1 584 848 L 584 872" stroke-miterlimit="10"></path></g><g transform="translate(-318,-30) scale(1,1)"><path fill="#000000" stroke="none" d="M 579.790482243984 861.8373251423759 L 584 872 L 588.209517756016 861.8373251423759"></path></g><g transform="translate(-318,-30) scale(1,1)"><path fill="none" stroke="#000000" d="M 579.790482243984 861.8373251423759 L 584 872 L 588.209517756016 861.8373251423759 L 579.790482243984 861.8373251423759" stroke-miterlimit="10"></path></g><g transform="translate(-318,-30) scale(1,1)"><g><path fill="none" stroke="none"></path><text fill="#000000" stroke="none" font-family="Arial" font-size="13px" font-style="normal" font-weight="normal" text-decoration="none" x="507" y="828">True</text></g></g><g transform="translate(-318,-30) scale(1,1)"><path fill="none" stroke="#000000" d="M 584 930 L 584 952 M 584 952 A 8 8 0 0 1 576 960 L 431 960" stroke-miterlimit="10"></path></g><g transform="translate(-318,-30) scale(1,1)"><path fill="#000000" stroke="none" d="M 441.16267485762415 955.790482243984 L 431 960 L 441.16267485762415 964.209517756016"></path></g><g transform="translate(-318,-30) scale(1,1)"><path fill="none" stroke="#000000" d="M 441.16267485762415 955.790482243984 L 431 960 L 441.16267485762415 964.209517756016 L 441.16267485762415 955.790482243984" stroke-miterlimit="10"></path></g><g transform="translate(-318,-30) scale(1,1)"><rect fill="#ffffff" stroke="none" x="616" y="1080" width="76.4208984375" height="72"></rect></g><g transform="translate(-318,-30) scale(1,1)"><path fill="none" stroke="#000000" d="M 616 1080 L 692.4208984375 1080 L 692.4208984375 1152 L 616 1152 L 616 1080 Z Z" stroke-miterlimit="10"></path></g><g transform="translate(-318,-30) scale(1,1)"><g><path fill="none" stroke="none"></path><text fill="#000000" stroke="none" font-family="Arial" font-size="13px" font-style="normal" font-weight="normal" text-decoration="none" x="641.71044921875" y="1102.5">print</text><text fill="#000000" stroke="none" font-family="Arial" font-size="13px" font-style="normal" font-weight="normal" text-decoration="none" x="628.71044921875" y="1115.5">vareNr[i];</text><text fill="#000000" stroke="none" font-family="Arial" font-size="13px" font-style="normal" font-weight="normal" text-decoration="none" x="636.21044921875" y="1128.5">pris[i];</text><text fill="#000000" stroke="none" font-family="Arial" font-size="13px" font-style="normal" font-weight="normal" text-decoration="none" x="632.71044921875" y="1141.5">antal[i];</text></g></g><g transform="translate(-318,-30) scale(1,1)"><path fill="#ffffff" stroke="none" d="M 400 1062.5 C 400 1054.4918704 406.4918704 1048 414.5 1048 C 422.5081296 1048 429 1054.4918704 429 1062.5 C 429 1070.5081296 422.5081296 1077 414.5 1077 C 406.4918704 1077 400 1070.5081296 400 1062.5 Z"></path></g><g transform="translate(-318,-30) scale(1,1)"><path fill="none" stroke="#000000" d="M 400 1062.5 C 400 1054.4918704 406.4918704 1048 414.5 1048 C 422.5081296 1048 429 1054.4918704 429 1062.5 C 429 1070.5081296 422.5081296 1077 414.5 1077 C 406.4918704 1077 400 1070.5081296 400 1062.5 Z" stroke-miterlimit="10"></path></g><g transform="translate(-318,-30) scale(1,1)"><g><path fill="none" stroke="none"></path></g></g><g transform="translate(-318,-30) scale(1,1)"><path fill="none" stroke="#000000" d="M 413 975 L 413 992" stroke-miterlimit="10"></path></g><g transform="translate(-318,-30) scale(1,1)"><path fill="#000000" stroke="none" d="M 408.790482243984 981.8373251423759 L 413 992 L 417.209517756016 981.8373251423759"></path></g><g transform="translate(-318,-30) scale(1,1)"><path fill="none" stroke="#000000" d="M 408.790482243984 981.8373251423759 L 413 992 L 417.209517756016 981.8373251423759 L 408.790482243984 981.8373251423759" stroke-miterlimit="10"></path></g><g transform="translate(-318,-30) scale(1,1)"><rect fill="#ffffff" stroke="none" x="504" y="1048" width="48" height="32"></rect></g><g transform="translate(-318,-30) scale(1,1)"><path fill="none" stroke="#000000" d="M 504 1048 L 552 1048 L 552 1080 L 504 1080 L 504 1048 Z Z" stroke-miterlimit="10"></path></g><g transform="translate(-318,-30) scale(1,1)"><g><path fill="none" stroke="none"></path><text fill="#000000" stroke="none" font-family="Arial" font-size="13px" font-style="normal" font-weight="normal" text-decoration="none" x="518.5" y="1070.5">i++</text></g></g><g transform="translate(-318,-30) scale(1,1)"><path fill="none" stroke="#000000" d="M 648 1080 L 648 1072 M 648 1072 A 8 8 0 0 0 640 1064 L 552 1064" stroke-miterlimit="10"></path></g><g transform="translate(-318,-30) scale(1,1)"><path fill="#000000" stroke="none" d="M 562.1626748576241 1059.7904822439841 L 552 1064 L 562.1626748576241 1068.2095177560159"></path></g><g transform="translate(-318,-30) scale(1,1)"><path fill="none" stroke="#000000" d="M 562.1626748576241 1059.7904822439841 L 552 1064 L 562.1626748576241 1068.2095177560159 L 562.1626748576241 1059.7904822439841" stroke-miterlimit="10"></path></g><g transform="translate(-318,-30) scale(1,1)"><path fill="none" stroke="#000000" d="M 504 1064 L 429 1064" stroke-miterlimit="10"></path></g><g transform="translate(-318,-30) scale(1,1)"><path fill="#000000" stroke="none" d="M 439.16267485762415 1059.7904822439841 L 429 1064 L 439.16267485762415 1068.2095177560159"></path></g><g transform="translate(-318,-30) scale(1,1)"><path fill="none" stroke="#000000" d="M 439.16267485762415 1059.7904822439841 L 429 1064 L 439.16267485762415 1068.2095177560159 L 439.16267485762415 1059.7904822439841" stroke-miterlimit="10"></path></g><g transform="translate(-318,-30) scale(1,1)"><path fill="none" stroke="#000000" d="M 415 1024 L 415 1048" stroke-miterlimit="10"></path></g><g transform="translate(-318,-30) scale(1,1)"><path fill="#000000" stroke="none" d="M 410.790482243984 1037.837325142376 L 415 1048 L 419.209517756016 1037.837325142376"></path></g><g transform="translate(-318,-30) scale(1,1)"><path fill="none" stroke="#000000" d="M 410.790482243984 1037.837325142376 L 415 1048 L 419.209517756016 1037.837325142376 L 410.790482243984 1037.837325142376" stroke-miterlimit="10"></path></g><g transform="translate(-318,-30) scale(1,1)"><path fill="none" stroke="#000000" d="M 413 1077 L 413 1144" stroke-miterlimit="10"></path></g><g transform="translate(-318,-30) scale(1,1)"><path fill="#000000" stroke="none" d="M 408.790482243984 1133.837325142376 L 413 1144 L 417.209517756016 1133.837325142376"></path></g><g transform="translate(-318,-30) scale(1,1)"><path fill="none" stroke="#000000" d="M 408.790482243984 1133.837325142376 L 413 1144 L 417.209517756016 1133.837325142376 L 408.790482243984 1133.837325142376" stroke-miterlimit="10"></path></g><g transform="translate(-318,-30) scale(1,1)"><path fill="none" stroke="#000000" d="M 463 1180 L 636 1180 M 636 1180 A 8 8 0 0 0 644 1172 L 644 1152" stroke-miterlimit="10"></path></g><g transform="translate(-318,-30) scale(1,1)"><path fill="#000000" stroke="none" d="M 648.209517756016 1162.162674857624 L 644 1152 L 639.790482243984 1162.162674857624"></path></g><g transform="translate(-318,-30) scale(1,1)"><path fill="none" stroke="#000000" d="M 648.209517756016 1162.162674857624 L 644 1152 L 639.790482243984 1162.162674857624 L 648.209517756016 1162.162674857624" stroke-miterlimit="10"></path></g><g transform="translate(-318,-30) scale(1,1)"><g><path fill="none" stroke="none"></path><text fill="#000000" stroke="none" font-family="Arial" font-size="13px" font-style="normal" font-weight="normal" text-decoration="none" x="527" y="1165">True</text></g></g><g transform="translate(-318,-30) scale(1,1)"><path fill="#ffffff" stroke="none" d="M 372 1240 L 451 1240 Q 471 1240 471 1260 L 471 1259 Q 471 1279 451 1279 L 372 1279 Q 352 1279 352 1259 L 352 1260 Q 352 1240 372 1240 Z"></path></g><g transform="translate(-318,-30) scale(1,1)"><path fill="none" stroke="#000000" d="M 372 1240 L 451 1240 Q 471 1240 471 1260 L 471 1259 Q 471 1279 451 1279 L 372 1279 Q 352 1279 352 1259 L 352 1260 Q 352 1240 372 1240 Z" stroke-miterlimit="10"></path></g><g transform="translate(-318,-30) scale(1,1)"><g><path fill="none" stroke="none"></path><text fill="#000000" stroke="none" font-family="Arial" font-size="13px" font-style="normal" font-weight="normal" text-decoration="none" x="400" y="1262.5">End</text></g></g><g transform="translate(-318,-30) scale(1,1)"><path fill="none" stroke="#000000" d="M 410 1215 L 410 1240" stroke-miterlimit="10"></path></g><g transform="translate(-318,-30) scale(1,1)"><path fill="#000000" stroke="none" d="M 405.790482243984 1229.837325142376 L 410 1240 L 414.209517756016 1229.837325142376"></path></g><g transform="translate(-318,-30) scale(1,1)"><path fill="none" stroke="#000000" d="M 405.790482243984 1229.837325142376 L 410 1240 L 414.209517756016 1229.837325142376 L 405.790482243984 1229.837325142376" stroke-miterlimit="10"></path></g><g transform="translate(-318,-30) scale(1,1)"><g><path fill="none" stroke="none"></path><text fill="#000000" stroke="none" font-family="Arial" font-size="13px" font-style="normal" font-weight="normal" text-decoration="none" x="423" y="1229">False</text></g></g><g transform="translate(-318,-30) scale(1,1)"><path fill="#ffffff" stroke="none" d="M 456 368 L 604.5 296 L 753 368 L 604.5 440 L 456 368"></path></g><g transform="translate(-318,-30) scale(1,1)"><path fill="none" stroke="#000000" d="M 456 368 L 604.5 296 L 753 368 L 604.5 440 L 456 368 L 456 368" stroke-miterlimit="10"></path></g><g transform="translate(-318,-30) scale(1,1)"><g><path fill="none" stroke="none"></path><text fill="#000000" stroke="none" font-family="Arial" font-size="13px" font-style="normal" font-weight="normal" text-decoration="none" x="536.5" y="355">pris &lt;= 100 &amp;&amp; pris &gt; 0</text><text fill="#000000" stroke="none" font-family="Arial" font-size="13px" font-style="normal" font-weight="normal" text-decoration="none" x="549" y="368">&amp;&amp; vareNr &gt;= 3 &amp;&amp;</text><text fill="#000000" stroke="none" font-family="Arial" font-size="13px" font-style="normal" font-weight="normal" text-decoration="none" x="530.5" y="381">vareNr &lt;= 23 &amp;&amp; antal &lt;=</text><text fill="#000000" stroke="none" font-family="Arial" font-size="13px" font-style="normal" font-weight="normal" text-decoration="none" x="601" y="394">5</text></g></g><g transform="translate(-318,-30) scale(1,1)"><path fill="none" stroke="#000000" d="M 603 255 L 603 296" stroke-miterlimit="10"></path></g><g transform="translate(-318,-30) scale(1,1)"><path fill="#000000" stroke="none" d="M 598.790482243984 285.83732514237585 L 603 296 L 607.209517756016 285.83732514237585"></path></g><g transform="translate(-318,-30) scale(1,1)"><path fill="none" stroke="#000000" d="M 598.790482243984 285.83732514237585 L 603 296 L 607.209517756016 285.83732514237585 L 598.790482243984 285.83732514237585" stroke-miterlimit="10"></path></g><g transform="translate(-318,-30) scale(1,1)"><path fill="none" stroke="#000000" d="M 602 440 L 602 496" stroke-miterlimit="10"></path></g><g transform="translate(-318,-30) scale(1,1)"><path fill="#000000" stroke="none" d="M 597.790482243984 485.83732514237585 L 602 496 L 606.209517756016 485.83732514237585"></path></g><g transform="translate(-318,-30) scale(1,1)"><path fill="none" stroke="#000000" d="M 597.790482243984 485.83732514237585 L 602 496 L 606.209517756016 485.83732514237585 L 597.790482243984 485.83732514237585" stroke-miterlimit="10"></path></g><g transform="translate(-318,-30) scale(1,1)"><g><path fill="none" stroke="none"></path><text fill="#000000" stroke="none" font-family="Arial" font-size="13px" font-style="normal" font-weight="normal" text-decoration="none" x="616" y="469">True</text></g></g><g transform="translate(-318,-30) scale(1,1)"><path fill="#ffffff" stroke="none" d="M 834 328 L 1008 328 L 974 416 L 800 416 L 834 328"></path></g><g transform="translate(-318,-30) scale(1,1)"><path fill="none" stroke="#000000" d="M 834 328 L 1008 328 L 974 416 L 800 416 L 834 328 L 834 328" stroke-miterlimit="10"></path></g><g transform="translate(-318,-30) scale(1,1)"><g><path fill="none" stroke="none"></path><text fill="#000000" stroke="none" font-family="Arial" font-size="13px" font-style="normal" font-weight="normal" text-decoration="none" x="853.5" y="350.5">"Prisen skal ligge</text><text fill="#000000" stroke="none" font-family="Arial" font-size="13px" font-style="normal" font-weight="normal" text-decoration="none" x="854" y="363.5">mellem 1 og 100,</text><text fill="#000000" stroke="none" font-family="Arial" font-size="13px" font-style="normal" font-weight="normal" text-decoration="none" x="846" y="376.5">varenummer mellem</text><text fill="#000000" stroke="none" font-family="Arial" font-size="13px" font-style="normal" font-weight="normal" text-decoration="none" x="857.5" y="389.5">3 og 23 og antal</text><text fill="#000000" stroke="none" font-family="Arial" font-size="13px" font-style="normal" font-weight="normal" text-decoration="none" x="880" y="402.5">maks 5"</text></g></g><g transform="translate(-318,-30) scale(1,1)"><path fill="none" stroke="#000000" d="M 753 368 L 800 368" stroke-miterlimit="10"></path></g><g transform="translate(-318,-30) scale(1,1)"><path fill="#000000" stroke="none" d="M 789.8373251423759 372.209517756016 L 800 368 L 789.8373251423758 363.790482243984"></path></g><g transform="translate(-318,-30) scale(1,1)"><path fill="none" stroke="#000000" d="M 789.8373251423759 372.209517756016 L 800 368 L 789.8373251423758 363.790482243984 L 789.8373251423759 372.209517756016" stroke-miterlimit="10"></path></g><g transform="translate(-318,-30) scale(1,1)"><g><path fill="none" stroke="none"></path><text fill="#000000" stroke="none" font-family="Arial" font-size="13px" font-style="normal" font-weight="normal" text-decoration="none" x="760" y="360">False</text></g></g><g transform="translate(-318,-30) scale(1,1)"><path fill="none" stroke="#000000" d="M 912 328 L 912 224 M 912 224 A 8 8 0 0 0 904 216 L 679 216" stroke-miterlimit="10"></path></g><g transform="translate(-318,-30) scale(1,1)"><path fill="#000000" stroke="none" d="M 689.1626748576241 211.790482243984 L 679 216 L 689.1626748576241 220.209517756016"></path></g><g transform="translate(-318,-30) scale(1,1)"><path fill="none" stroke="#000000" d="M 689.1626748576241 211.790482243984 L 679 216 L 689.1626748576241 220.209517756016 L 689.1626748576241 211.790482243984" stroke-miterlimit="10"></path></g></g></svg>