<svg version="1.1" xmlns="http://www.w3.org/2000/svg" xmlns:xlink="http://www.w3.org/1999/xlink" width="434" height="1524"><defs/><g><g transform="translate(-318,-14) scale(1,1)"><path fill="#ffffff" stroke="none" d="M 376.5 24 L 470.5 24 Q 487 24 487 40.5 L 487 39.5 Q 487 56 470.5 56 L 376.5 56 Q 360 56 360 39.5 L 360 40.5 Q 360 24 376.5 24 Z"/></g><g transform="translate(-318,-14) scale(1,1)"><path fill="none" stroke="#000000" d="M 376.5 24 L 470.5 24 Q 487 24 487 40.5 L 487 39.5 Q 487 56 470.5 56 L 376.5 56 Q 360 56 360 39.5 L 360 40.5 Q 360 24 376.5 24 Z" stroke-miterlimit="10"/></g><g transform="translate(-318,-14) scale(1,1)"><g><path fill="none" stroke="none"/><text fill="#000000" stroke="none" font-family="Arial" font-size="13px" font-style="normal" font-weight="normal" text-decoration="none" x="409.5" y="46.5">Start</text></g></g><g transform="translate(-318,-14) scale(1,1)"><path fill="#ffffff" stroke="none" d="M 361 83 L 528 83 L 495 180 L 328 180 L 361 83"/></g><g transform="translate(-318,-14) scale(1,1)"><path fill="none" stroke="#000000" d="M 361 83 L 528 83 L 495 180 L 328 180 L 361 83 L 361 83" stroke-miterlimit="10"/></g><g transform="translate(-318,-14) scale(1,1)"><g><path fill="none" stroke="none"/><text fill="#000000" stroke="none" font-family="Arial" font-size="13px" font-style="normal" font-weight="normal" text-decoration="none" x="378" y="105.5">int counter = 0;   </text><text fill="#000000" stroke="none" font-family="Arial" font-size="13px" font-style="normal" font-weight="normal" text-decoration="none" x="372.5" y="118.5">int maksBest = 10;</text><text fill="#000000" stroke="none" font-family="Arial" font-size="13px" font-style="normal" font-weight="normal" text-decoration="none" x="371.5" y="131.5">   int flereVarer = 1;</text><text fill="#000000" stroke="none" font-family="Arial" font-size="13px" font-style="normal" font-weight="normal" text-decoration="none" x="376.5" y="144.5"> float total = 0; int</text><text fill="#000000" stroke="none" font-family="Arial" font-size="13px" font-style="normal" font-weight="normal" text-decoration="none" x="377" y="157.5">antalTotal = 0; int</text><text fill="#000000" stroke="none" font-family="Arial" font-size="13px" font-style="normal" font-weight="normal" text-decoration="none" x="381" y="170.5">forsendelse = 0;</text></g></g><g transform="translate(-318,-14) scale(1,1)"><path fill="#ffffff" stroke="none" d="M 528 182 L 679 168 L 679 255 L 528 255 L 528 182"/></g><g transform="translate(-318,-14) scale(1,1)"><path fill="none" stroke="#000000" d="M 528 182 L 679 168 L 679 255 L 528 255 L 528 182 L 528 182" stroke-miterlimit="10"/></g><g transform="translate(-318,-14) scale(1,1)"><g><path fill="none" stroke="none"/><text fill="#000000" stroke="none" font-family="Arial" font-size="13px" font-style="normal" font-weight="normal" text-decoration="none" x="550" y="225">vareNr; pris; antal;</text></g></g><g transform="translate(-318,-14) scale(1,1)"><path fill="#ffffff" stroke="none" d="M 562 280 L 656 280 L 638 352 L 544 352 L 562 280"/></g><g transform="translate(-318,-14) scale(1,1)"><path fill="none" stroke="#000000" d="M 562 280 L 656 280 L 638 352 L 544 352 L 562 280 L 562 280" stroke-miterlimit="10"/></g><g transform="translate(-318,-14) scale(1,1)"><g><path fill="none" stroke="none"/><text fill="#000000" stroke="none" font-family="Arial" font-size="13px" font-style="normal" font-weight="normal" text-decoration="none" x="573" y="302.5">gem data</text><text fill="#000000" stroke="none" font-family="Arial" font-size="13px" font-style="normal" font-weight="normal" text-decoration="none" x="575" y="315.5">vareNr[];</text><text fill="#000000" stroke="none" font-family="Arial" font-size="13px" font-style="normal" font-weight="normal" text-decoration="none" x="583.5" y="328.5">pris[];</text><text fill="#000000" stroke="none" font-family="Arial" font-size="13px" font-style="normal" font-weight="normal" text-decoration="none" x="580" y="341.5">antal[];</text></g></g><g transform="translate(-318,-14) scale(1,1)"><rect fill="#ffffff" stroke="none" x="544" y="384" width="103" height="39"/></g><g transform="translate(-318,-14) scale(1,1)"><path fill="none" stroke="#000000" d="M 544 384 L 647 384 L 647 423 L 544 423 L 544 384 Z Z" stroke-miterlimit="10"/></g><g transform="translate(-318,-14) scale(1,1)"><g><path fill="none" stroke="none"/><text fill="#000000" stroke="none" font-family="Arial" font-size="13px" font-style="normal" font-weight="normal" text-decoration="none" x="566" y="406.5">counter++</text></g></g><g transform="translate(-318,-14) scale(1,1)"><path fill="#ffffff" stroke="none" d="M 552 468 L 639 456 L 639 527 L 552 527 L 552 468"/></g><g transform="translate(-318,-14) scale(1,1)"><path fill="none" stroke="#000000" d="M 552 468 L 639 456 L 639 527 L 552 527 L 552 468 L 552 468" stroke-miterlimit="10"/></g><g transform="translate(-318,-14) scale(1,1)"><g><path fill="none" stroke="none"/><text fill="#000000" stroke="none" font-family="Arial" font-size="13px" font-style="normal" font-weight="normal" text-decoration="none" x="567.5" y="504">flereVarer</text></g></g><g transform="translate(-318,-14) scale(1,1)"><path fill="#ffffff" stroke="none" d="M 344 488 L 420 432 L 496 488 L 420 544 L 344 488"/></g><g transform="translate(-318,-14) scale(1,1)"><path fill="none" stroke="#000000" d="M 344 488 L 420 432 L 496 488 L 420 544 L 344 488 L 344 488" stroke-miterlimit="10"/></g><g transform="translate(-318,-14) scale(1,1)"><g><path fill="none" stroke="none"/><text fill="#000000" stroke="none" font-family="Arial" font-size="13px" font-style="normal" font-weight="normal" text-decoration="none" x="392.5" y="475">counter &lt;</text><text fill="#000000" stroke="none" font-family="Arial" font-size="13px" font-style="normal" font-weight="normal" text-decoration="none" x="390.5" y="488">maksBest</text><text fill="#000000" stroke="none" font-family="Arial" font-size="13px" font-style="normal" font-weight="normal" text-decoration="none" x="411" y="501">&amp;&amp;</text><text fill="#000000" stroke="none" font-family="Arial" font-size="13px" font-style="normal" font-weight="normal" text-decoration="none" x="392" y="514">flereVarer</text></g></g><g transform="translate(-318,-14) scale(1,1)"><path fill="none" stroke="#000000" d="M 424 56 L 424 83" stroke-miterlimit="10"/></g><g transform="translate(-318,-14) scale(1,1)"><path fill="#000000" stroke="none" d="M 419.790482243984 72.83732514237585 L 424 83 L 428.209517756016 72.83732514237585"/></g><g transform="translate(-318,-14) scale(1,1)"><path fill="none" stroke="#000000" d="M 419.790482243984 72.83732514237585 L 424 83 L 428.209517756016 72.83732514237585 L 419.790482243984 72.83732514237585" stroke-miterlimit="10"/></g><g transform="translate(-318,-14) scale(1,1)"><path fill="none" stroke="#000000" d="M 600 255 L 600 280" stroke-miterlimit="10"/></g><g transform="translate(-318,-14) scale(1,1)"><path fill="#000000" stroke="none" d="M 595.790482243984 269.83732514237585 L 600 280 L 604.209517756016 269.83732514237585"/></g><g transform="translate(-318,-14) scale(1,1)"><path fill="none" stroke="#000000" d="M 595.790482243984 269.83732514237585 L 600 280 L 604.209517756016 269.83732514237585 L 595.790482243984 269.83732514237585" stroke-miterlimit="10"/></g><g transform="translate(-318,-14) scale(1,1)"><path fill="none" stroke="#000000" d="M 600 352 L 600 384" stroke-miterlimit="10"/></g><g transform="translate(-318,-14) scale(1,1)"><path fill="#000000" stroke="none" d="M 595.790482243984 373.83732514237585 L 600 384 L 604.209517756016 373.83732514237585"/></g><g transform="translate(-318,-14) scale(1,1)"><path fill="none" stroke="#000000" d="M 595.790482243984 373.83732514237585 L 600 384 L 604.209517756016 373.83732514237585 L 595.790482243984 373.83732514237585" stroke-miterlimit="10"/></g><g transform="translate(-318,-14) scale(1,1)"><path fill="none" stroke="#000000" d="M 600 423 L 600 456" stroke-miterlimit="10"/></g><g transform="translate(-318,-14) scale(1,1)"><path fill="#000000" stroke="none" d="M 595.790482243984 445.83732514237585 L 600 456 L 604.209517756016 445.83732514237585"/></g><g transform="translate(-318,-14) scale(1,1)"><path fill="none" stroke="#000000" d="M 595.790482243984 445.83732514237585 L 600 456 L 604.209517756016 445.83732514237585 L 595.790482243984 445.83732514237585" stroke-miterlimit="10"/></g><g transform="translate(-318,-14) scale(1,1)"><path fill="none" stroke="#000000" d="M 552 491 L 496 491" stroke-miterlimit="10"/></g><g transform="translate(-318,-14) scale(1,1)"><path fill="#000000" stroke="none" d="M 506.16267485762415 486.790482243984 L 496 491 L 506.16267485762415 495.209517756016"/></g><g transform="translate(-318,-14) scale(1,1)"><path fill="none" stroke="#000000" d="M 506.16267485762415 486.790482243984 L 496 491 L 506.16267485762415 495.209517756016 L 506.16267485762415 486.790482243984" stroke-miterlimit="10"/></g><g transform="translate(-318,-14) scale(1,1)"><path fill="#ffffff" stroke="none" d="M 408 223.5 C 408 214.9395856 414.9395856 208 423.5 208 C 432.0604144 208 439 214.9395856 439 223.5 C 439 232.0604144 432.0604144 239 423.5 239 C 414.9395856 239 408 232.0604144 408 223.5 Z"/></g><g transform="translate(-318,-14) scale(1,1)"><path fill="none" stroke="#000000" d="M 408 223.5 C 408 214.9395856 414.9395856 208 423.5 208 C 432.0604144 208 439 214.9395856 439 223.5 C 439 232.0604144 432.0604144 239 423.5 239 C 414.9395856 239 408 232.0604144 408 223.5 Z" stroke-miterlimit="10"/></g><g transform="translate(-318,-14) scale(1,1)"><g><path fill="none" stroke="none"/></g></g><g transform="translate(-318,-14) scale(1,1)"><path fill="none" stroke="#000000" d="M 423 432 L 423 239" stroke-miterlimit="10"/></g><g transform="translate(-318,-14) scale(1,1)"><path fill="#000000" stroke="none" d="M 427.209517756016 249.16267485762415 L 423 239 L 418.790482243984 249.16267485762415"/></g><g transform="translate(-318,-14) scale(1,1)"><path fill="none" stroke="#000000" d="M 427.209517756016 249.16267485762415 L 423 239 L 418.790482243984 249.16267485762415 L 427.209517756016 249.16267485762415" stroke-miterlimit="10"/></g><g transform="translate(-318,-14) scale(1,1)"><g><path fill="none" stroke="none"/><text fill="#000000" stroke="none" font-family="Arial" font-size="13px" font-style="normal" font-weight="normal" text-decoration="none" x="383" y="349">True</text></g></g><g transform="translate(-318,-14) scale(1,1)"><path fill="none" stroke="#000000" d="M 439 222 L 528 222" stroke-miterlimit="10"/></g><g transform="translate(-318,-14) scale(1,1)"><path fill="#000000" stroke="none" d="M 517.8373251423759 226.209517756016 L 528 222 L 517.8373251423758 217.790482243984"/></g><g transform="translate(-318,-14) scale(1,1)"><path fill="none" stroke="#000000" d="M 517.8373251423759 226.209517756016 L 528 222 L 517.8373251423758 217.790482243984 L 517.8373251423759 226.209517756016" stroke-miterlimit="10"/></g><g transform="translate(-318,-14) scale(1,1)"><path fill="none" stroke="#000000" d="M 424 180 L 424 208" stroke-miterlimit="10"/></g><g transform="translate(-318,-14) scale(1,1)"><path fill="#000000" stroke="none" d="M 419.790482243984 197.83732514237585 L 424 208 L 428.209517756016 197.83732514237585"/></g><g transform="translate(-318,-14) scale(1,1)"><path fill="none" stroke="#000000" d="M 419.790482243984 197.83732514237585 L 424 208 L 428.209517756016 197.83732514237585 L 419.790482243984 197.83732514237585" stroke-miterlimit="10"/></g><g transform="translate(-318,-14) scale(1,1)"><path fill="#ffffff" stroke="none" d="M 360 623.5 L 418.5 576 L 477 623.5 L 418.5 671 L 360 623.5"/></g><g transform="translate(-318,-14) scale(1,1)"><path fill="none" stroke="#000000" d="M 360 623.5 L 418.5 576 L 477 623.5 L 418.5 671 L 360 623.5 L 360 623.5" stroke-miterlimit="10"/></g><g transform="translate(-318,-14) scale(1,1)"><g><path fill="none" stroke="none"/><text fill="#000000" stroke="none" font-family="Arial" font-size="13px" font-style="normal" font-weight="normal" text-decoration="none" x="397" y="617">counter</text><text fill="#000000" stroke="none" font-family="Arial" font-size="13px" font-style="normal" font-weight="normal" text-decoration="none" x="410.5" y="630">&gt;=</text><text fill="#000000" stroke="none" font-family="Arial" font-size="13px" font-style="normal" font-weight="normal" text-decoration="none" x="389" y="643">maksBest</text></g></g><g transform="translate(-318,-14) scale(1,1)"><path fill="#ffffff" stroke="none" d="M 532 656 L 671 656 L 643 714 L 504 714 L 532 656"/></g><g transform="translate(-318,-14) scale(1,1)"><path fill="none" stroke="#000000" d="M 532 656 L 671 656 L 643 714 L 504 714 L 532 656 L 532 656" stroke-miterlimit="10"/></g><g transform="translate(-318,-14) scale(1,1)"><g><path fill="none" stroke="none"/><text fill="#000000" stroke="none" font-family="Arial" font-size="13px" font-style="normal" font-weight="normal" text-decoration="none" x="569" y="678.5">"Maks</text><text fill="#000000" stroke="none" font-family="Arial" font-size="13px" font-style="normal" font-weight="normal" text-decoration="none" x="554.5" y="691.5">bestilling er</text><text fill="#000000" stroke="none" font-family="Arial" font-size="13px" font-style="normal" font-weight="normal" text-decoration="none" x="569" y="704.5">naaet"</text></g></g><g transform="translate(-318,-14) scale(1,1)"><path fill="none" stroke="#000000" d="M 419 544 L 419 576" stroke-miterlimit="10"/></g><g transform="translate(-318,-14) scale(1,1)"><path fill="#000000" stroke="none" d="M 414.790482243984 565.8373251423759 L 419 576 L 423.209517756016 565.8373251423759"/></g><g transform="translate(-318,-14) scale(1,1)"><path fill="none" stroke="#000000" d="M 414.790482243984 565.8373251423759 L 419 576 L 423.209517756016 565.8373251423759 L 414.790482243984 565.8373251423759" stroke-miterlimit="10"/></g><g transform="translate(-318,-14) scale(1,1)"><g><path fill="none" stroke="none"/><text fill="#000000" stroke="none" font-family="Arial" font-size="13px" font-style="normal" font-weight="normal" text-decoration="none" x="431" y="558">False</text></g></g><g transform="translate(-318,-14) scale(1,1)"><rect fill="#ffffff" stroke="none" x="384" y="776" width="64" height="32"/></g><g transform="translate(-318,-14) scale(1,1)"><path fill="none" stroke="#000000" d="M 384 776 L 448 776 L 448 808 L 384 808 L 384 776 Z Z" stroke-miterlimit="10"/></g><g transform="translate(-318,-14) scale(1,1)"><g><path fill="none" stroke="none"/><text fill="#000000" stroke="none" font-family="Arial" font-size="13px" font-style="normal" font-weight="normal" text-decoration="none" x="403" y="798.5">i = 0</text></g></g><g transform="translate(-318,-14) scale(1,1)"><path fill="#ffffff" stroke="none" d="M 368 1059.5 L 410.5 1024 L 453 1059.5 L 410.5 1095 L 368 1059.5"/></g><g transform="translate(-318,-14) scale(1,1)"><path fill="none" stroke="#000000" d="M 368 1059.5 L 410.5 1024 L 453 1059.5 L 410.5 1095 L 368 1059.5 L 368 1059.5" stroke-miterlimit="10"/></g><g transform="translate(-318,-14) scale(1,1)"><g><path fill="none" stroke="none"/><text fill="#000000" stroke="none" font-family="Arial" font-size="13px" font-style="normal" font-weight="normal" text-decoration="none" x="403" y="1059.5">i &lt;</text><text fill="#000000" stroke="none" font-family="Arial" font-size="13px" font-style="normal" font-weight="normal" text-decoration="none" x="389" y="1072.5">counter</text></g></g><g transform="translate(-318,-14) scale(1,1)"><path fill="#ffffff" stroke="none" d="M 392 739.5 C 392 728.7304464 400.7304464 720 411.5 720 C 422.2695536 720 431 728.7304464 431 739.5 C 431 750.2695536 422.2695536 759 411.5 759 C 400.7304464 759 392 750.2695536 392 739.5 Z"/></g><g transform="translate(-318,-14) scale(1,1)"><path fill="none" stroke="#000000" d="M 392 739.5 C 392 728.7304464 400.7304464 720 411.5 720 C 422.2695536 720 431 728.7304464 431 739.5 C 431 750.2695536 422.2695536 759 411.5 759 C 400.7304464 759 392 750.2695536 392 739.5 Z" stroke-miterlimit="10"/></g><g transform="translate(-318,-14) scale(1,1)"><g><path fill="none" stroke="none"/></g></g><g transform="translate(-318,-14) scale(1,1)"><path fill="none" stroke="#000000" d="M 414 671 L 414 720" stroke-miterlimit="10"/></g><g transform="translate(-318,-14) scale(1,1)"><path fill="#000000" stroke="none" d="M 409.790482243984 709.8373251423759 L 414 720 L 418.209517756016 709.8373251423759"/></g><g transform="translate(-318,-14) scale(1,1)"><path fill="none" stroke="#000000" d="M 409.790482243984 709.8373251423759 L 414 720 L 418.209517756016 709.8373251423759 L 409.790482243984 709.8373251423759" stroke-miterlimit="10"/></g><g transform="translate(-318,-14) scale(1,1)"><g><path fill="none" stroke="none"/><text fill="#000000" stroke="none" font-family="Arial" font-size="13px" font-style="normal" font-weight="normal" text-decoration="none" x="420" y="701">False</text></g></g><g transform="translate(-318,-14) scale(1,1)"><path fill="none" stroke="#000000" d="M 477 624 L 576 624 M 576 624 A 8 8 0 0 1 584 632 L 584 656" stroke-miterlimit="10"/></g><g transform="translate(-318,-14) scale(1,1)"><path fill="#000000" stroke="none" d="M 579.790482243984 645.8373251423759 L 584 656 L 588.209517756016 645.8373251423759"/></g><g transform="translate(-318,-14) scale(1,1)"><path fill="none" stroke="#000000" d="M 579.790482243984 645.8373251423759 L 584 656 L 588.209517756016 645.8373251423759 L 579.790482243984 645.8373251423759" stroke-miterlimit="10"/></g><g transform="translate(-318,-14) scale(1,1)"><g><path fill="none" stroke="none"/><text fill="#000000" stroke="none" font-family="Arial" font-size="13px" font-style="normal" font-weight="normal" text-decoration="none" x="506" y="612">True</text></g></g><g transform="translate(-318,-14) scale(1,1)"><path fill="none" stroke="#000000" d="M 584 714 L 584 736 M 584 736 A 8 8 0 0 1 576 744 L 431 744" stroke-miterlimit="10"/></g><g transform="translate(-318,-14) scale(1,1)"><path fill="#000000" stroke="none" d="M 441.16267485762415 739.790482243984 L 431 744 L 441.16267485762415 748.209517756016"/></g><g transform="translate(-318,-14) scale(1,1)"><path fill="none" stroke="#000000" d="M 441.16267485762415 739.790482243984 L 431 744 L 441.16267485762415 748.209517756016 L 441.16267485762415 739.790482243984" stroke-miterlimit="10"/></g><g transform="translate(-318,-14) scale(1,1)"><rect fill="#ffffff" stroke="none" x="616" y="952" width="72" height="72"/></g><g transform="translate(-318,-14) scale(1,1)"><path fill="none" stroke="#000000" d="M 616 952 L 688 952 L 688 1024 L 616 1024 L 616 952 Z Z" stroke-miterlimit="10"/></g><g transform="translate(-318,-14) scale(1,1)"><g><path fill="none" stroke="none"/><text fill="#000000" stroke="none" font-family="Arial" font-size="13px" font-style="normal" font-weight="normal" text-decoration="none" x="639.5" y="974.5">print</text><text fill="#000000" stroke="none" font-family="Arial" font-size="13px" font-style="normal" font-weight="normal" text-decoration="none" x="625.5" y="987.5">vareNr[i];</text><text fill="#000000" stroke="none" font-family="Arial" font-size="13px" font-style="normal" font-weight="normal" text-decoration="none" x="634" y="1000.5">pris[i];</text><text fill="#000000" stroke="none" font-family="Arial" font-size="13px" font-style="normal" font-weight="normal" text-decoration="none" x="630.5" y="1013.5">antal[i];</text></g></g><g transform="translate(-318,-14) scale(1,1)"><path fill="#ffffff" stroke="none" d="M 400 846.5 C 400 838.4918704 406.4918704 832 414.5 832 C 422.5081296 832 429 838.4918704 429 846.5 C 429 854.5081296 422.5081296 861 414.5 861 C 406.4918704 861 400 854.5081296 400 846.5 Z"/></g><g transform="translate(-318,-14) scale(1,1)"><path fill="none" stroke="#000000" d="M 400 846.5 C 400 838.4918704 406.4918704 832 414.5 832 C 422.5081296 832 429 838.4918704 429 846.5 C 429 854.5081296 422.5081296 861 414.5 861 C 406.4918704 861 400 854.5081296 400 846.5 Z" stroke-miterlimit="10"/></g><g transform="translate(-318,-14) scale(1,1)"><g><path fill="none" stroke="none"/></g></g><g transform="translate(-318,-14) scale(1,1)"><path fill="none" stroke="#000000" d="M 413 759 L 413 776" stroke-miterlimit="10"/></g><g transform="translate(-318,-14) scale(1,1)"><path fill="#000000" stroke="none" d="M 408.790482243984 765.8373251423759 L 413 776 L 417.209517756016 765.8373251423759"/></g><g transform="translate(-318,-14) scale(1,1)"><path fill="none" stroke="#000000" d="M 408.790482243984 765.8373251423759 L 413 776 L 417.209517756016 765.8373251423759 L 408.790482243984 765.8373251423759" stroke-miterlimit="10"/></g><g transform="translate(-318,-14) scale(1,1)"><rect fill="#ffffff" stroke="none" x="504" y="832" width="48" height="32"/></g><g transform="translate(-318,-14) scale(1,1)"><path fill="none" stroke="#000000" d="M 504 832 L 552 832 L 552 864 L 504 864 L 504 832 Z Z" stroke-miterlimit="10"/></g><g transform="translate(-318,-14) scale(1,1)"><g><path fill="none" stroke="none"/><text fill="#000000" stroke="none" font-family="Arial" font-size="13px" font-style="normal" font-weight="normal" text-decoration="none" x="518.5" y="854.5">i++</text></g></g><g transform="translate(-318,-14) scale(1,1)"><path fill="none" stroke="#000000" d="M 504 848 L 429 848" stroke-miterlimit="10"/></g><g transform="translate(-318,-14) scale(1,1)"><path fill="#000000" stroke="none" d="M 439.16267485762415 843.790482243984 L 429 848 L 439.16267485762415 852.209517756016"/></g><g transform="translate(-318,-14) scale(1,1)"><path fill="none" stroke="#000000" d="M 439.16267485762415 843.790482243984 L 429 848 L 439.16267485762415 852.209517756016 L 439.16267485762415 843.790482243984" stroke-miterlimit="10"/></g><g transform="translate(-318,-14) scale(1,1)"><path fill="none" stroke="#000000" d="M 415 808 L 415 832" stroke-miterlimit="10"/></g><g transform="translate(-318,-14) scale(1,1)"><path fill="#000000" stroke="none" d="M 410.790482243984 821.8373251423759 L 415 832 L 419.209517756016 821.8373251423759"/></g><g transform="translate(-318,-14) scale(1,1)"><path fill="none" stroke="#000000" d="M 410.790482243984 821.8373251423759 L 415 832 L 419.209517756016 821.8373251423759 L 410.790482243984 821.8373251423759" stroke-miterlimit="10"/></g><g transform="translate(-318,-14) scale(1,1)"><path fill="none" stroke="#000000" d="M 413 861 L 413 1024" stroke-miterlimit="10"/></g><g transform="translate(-318,-14) scale(1,1)"><path fill="#000000" stroke="none" d="M 408.790482243984 1013.8373251423759 L 413 1024 L 417.209517756016 1013.8373251423759"/></g><g transform="translate(-318,-14) scale(1,1)"><path fill="none" stroke="#000000" d="M 408.790482243984 1013.8373251423759 L 413 1024 L 417.209517756016 1013.8373251423759 L 408.790482243984 1013.8373251423759" stroke-miterlimit="10"/></g><g transform="translate(-318,-14) scale(1,1)"><path fill="none" stroke="#000000" d="M 453 1060 L 636 1060 M 636 1060 A 8 8 0 0 0 644 1052 L 644 1024" stroke-miterlimit="10"/></g><g transform="translate(-318,-14) scale(1,1)"><path fill="#000000" stroke="none" d="M 648.209517756016 1034.162674857624 L 644 1024 L 639.790482243984 1034.162674857624"/></g><g transform="translate(-318,-14) scale(1,1)"><path fill="none" stroke="#000000" d="M 648.209517756016 1034.162674857624 L 644 1024 L 639.790482243984 1034.162674857624 L 648.209517756016 1034.162674857624" stroke-miterlimit="10"/></g><g transform="translate(-318,-14) scale(1,1)"><g><path fill="none" stroke="none"/><text fill="#000000" stroke="none" font-family="Arial" font-size="13px" font-style="normal" font-weight="normal" text-decoration="none" x="526" y="1045">True</text></g></g><g transform="translate(-318,-14) scale(1,1)"><path fill="#ffffff" stroke="none" d="M 376.5 1496 L 462.5 1496 Q 479 1496 479 1512.5 L 479 1511.5 Q 479 1528 462.5 1528 L 376.5 1528 Q 360 1528 360 1511.5 L 360 1512.5 Q 360 1496 376.5 1496 Z"/></g><g transform="translate(-318,-14) scale(1,1)"><path fill="none" stroke="#000000" d="M 376.5 1496 L 462.5 1496 Q 479 1496 479 1512.5 L 479 1511.5 Q 479 1528 462.5 1528 L 376.5 1528 Q 360 1528 360 1511.5 L 360 1512.5 Q 360 1496 376.5 1496 Z" stroke-miterlimit="10"/></g><g transform="translate(-318,-14) scale(1,1)"><g><path fill="none" stroke="none"/><text fill="#000000" stroke="none" font-family="Arial" font-size="13px" font-style="normal" font-weight="normal" text-decoration="none" x="408" y="1518.5">End</text></g></g><g transform="translate(-318,-14) scale(1,1)"><rect fill="#ffffff" stroke="none" x="560" y="880" width="176" height="45"/></g><g transform="translate(-318,-14) scale(1,1)"><path fill="none" stroke="#000000" d="M 560 880 L 736 880 L 736 925 L 560 925 L 560 880 Z Z" stroke-miterlimit="10"/></g><g transform="translate(-318,-14) scale(1,1)"><g><path fill="none" stroke="none"/><text fill="#000000" stroke="none" font-family="Arial" font-size="13px" font-style="normal" font-weight="normal" text-decoration="none" x="579.5" y="902.5">total += pris[i] * antal[i];</text><text fill="#000000" stroke="none" font-family="Arial" font-size="13px" font-style="normal" font-weight="normal" text-decoration="none" x="586" y="915.5">antalTotal += antal[i];</text></g></g><g transform="translate(-318,-14) scale(1,1)"><path fill="none" stroke="#000000" d="M 649 952 L 649 925" stroke-miterlimit="10"/></g><g transform="translate(-318,-14) scale(1,1)"><path fill="#000000" stroke="none" d="M 653.209517756016 935.1626748576241 L 649 925 L 644.790482243984 935.1626748576241"/></g><g transform="translate(-318,-14) scale(1,1)"><path fill="none" stroke="#000000" d="M 653.209517756016 935.1626748576241 L 649 925 L 644.790482243984 935.1626748576241 L 653.209517756016 935.1626748576241" stroke-miterlimit="10"/></g><g transform="translate(-318,-14) scale(1,1)"><path fill="none" stroke="#000000" d="M 648 880 L 648 856 M 648 856 A 8 8 0 0 0 640 848 L 552 848" stroke-miterlimit="10"/></g><g transform="translate(-318,-14) scale(1,1)"><path fill="#000000" stroke="none" d="M 562.1626748576241 843.790482243984 L 552 848 L 562.1626748576241 852.209517756016"/></g><g transform="translate(-318,-14) scale(1,1)"><path fill="none" stroke="#000000" d="M 562.1626748576241 843.790482243984 L 552 848 L 562.1626748576241 852.209517756016 L 562.1626748576241 843.790482243984" stroke-miterlimit="10"/></g><g transform="translate(-318,-14) scale(1,1)"><path fill="#ffffff" stroke="none" d="M 352 1227.5 L 408.5 1192 L 465 1227.5 L 408.5 1263 L 352 1227.5"/></g><g transform="translate(-318,-14) scale(1,1)"><path fill="none" stroke="#000000" d="M 352 1227.5 L 408.5 1192 L 465 1227.5 L 408.5 1263 L 352 1227.5 L 352 1227.5" stroke-miterlimit="10"/></g><g transform="translate(-318,-14) scale(1,1)"><g><path fill="none" stroke="none"/><text fill="#000000" stroke="none" font-family="Arial" font-size="13px" font-style="normal" font-weight="normal" text-decoration="none" x="384.5" y="1227.5">if total &gt;</text><text fill="#000000" stroke="none" font-family="Arial" font-size="13px" font-style="normal" font-weight="normal" text-decoration="none" x="398" y="1240.5">500</text></g></g><g transform="translate(-318,-14) scale(1,1)"><path fill="#ffffff" stroke="none" d="M 520 1227.5 L 576.5 1192 L 633 1227.5 L 576.5 1263 L 520 1227.5"/></g><g transform="translate(-318,-14) scale(1,1)"><path fill="none" stroke="#000000" d="M 520 1227.5 L 576.5 1192 L 633 1227.5 L 576.5 1263 L 520 1227.5 L 520 1227.5" stroke-miterlimit="10"/></g><g transform="translate(-318,-14) scale(1,1)"><g><path fill="none" stroke="none"/><text fill="#000000" stroke="none" font-family="Arial" font-size="13px" font-style="normal" font-weight="normal" text-decoration="none" x="552.5" y="1227.5">if total &lt;</text><text fill="#000000" stroke="none" font-family="Arial" font-size="13px" font-style="normal" font-weight="normal" text-decoration="none" x="566" y="1240.5">200</text></g></g><g transform="translate(-318,-14) scale(1,1)"><path fill="#ffffff" stroke="none" d="M 400 1366.5 C 400 1358.4918704 406.4918704 1352 414.5 1352 C 422.5081296 1352 429 1358.4918704 429 1366.5 C 429 1374.5081296 422.5081296 1381 414.5 1381 C 406.4918704 1381 400 1374.5081296 400 1366.5 Z"/></g><g transform="translate(-318,-14) scale(1,1)"><path fill="none" stroke="#000000" d="M 400 1366.5 C 400 1358.4918704 406.4918704 1352 414.5 1352 C 422.5081296 1352 429 1358.4918704 429 1366.5 C 429 1374.5081296 422.5081296 1381 414.5 1381 C 406.4918704 1381 400 1374.5081296 400 1366.5 Z" stroke-miterlimit="10"/></g><g transform="translate(-318,-14) scale(1,1)"><g><path fill="none" stroke="none"/></g></g><g transform="translate(-318,-14) scale(1,1)"><rect fill="#ffffff" stroke="none" x="368" y="1296" width="103" height="32"/></g><g transform="translate(-318,-14) scale(1,1)"><path fill="none" stroke="#000000" d="M 368 1296 L 471 1296 L 471 1328 L 368 1328 L 368 1296 Z Z" stroke-miterlimit="10"/></g><g transform="translate(-318,-14) scale(1,1)"><g><path fill="none" stroke="none"/><text fill="#000000" stroke="none" font-family="Arial" font-size="13px" font-style="normal" font-weight="normal" text-decoration="none" x="385.5" y="1318.5">total *= 0.9;</text></g></g><g transform="translate(-318,-14) scale(1,1)"><rect fill="#ffffff" stroke="none" x="528" y="1296" width="103" height="32"/></g><g transform="translate(-318,-14) scale(1,1)"><path fill="none" stroke="#000000" d="M 528 1296 L 631 1296 L 631 1328 L 528 1328 L 528 1296 Z Z" stroke-miterlimit="10"/></g><g transform="translate(-318,-14) scale(1,1)"><g><path fill="none" stroke="none"/><text fill="#000000" stroke="none" font-family="Arial" font-size="13px" font-style="normal" font-weight="normal" text-decoration="none" x="546" y="1318.5">total += 50;</text></g></g><g transform="translate(-318,-14) scale(1,1)"><path fill="#ffffff" stroke="none" d="M 568 1366.5 C 568 1358.4918704 574.4918704 1352 582.5 1352 C 590.5081296 1352 597 1358.4918704 597 1366.5 C 597 1374.5081296 590.5081296 1381 582.5 1381 C 574.4918704 1381 568 1374.5081296 568 1366.5 Z"/></g><g transform="translate(-318,-14) scale(1,1)"><path fill="none" stroke="#000000" d="M 568 1366.5 C 568 1358.4918704 574.4918704 1352 582.5 1352 C 590.5081296 1352 597 1358.4918704 597 1366.5 C 597 1374.5081296 590.5081296 1381 582.5 1381 C 574.4918704 1381 568 1374.5081296 568 1366.5 Z" stroke-miterlimit="10"/></g><g transform="translate(-318,-14) scale(1,1)"><g><path fill="none" stroke="none"/></g></g><g transform="translate(-318,-14) scale(1,1)"><path fill="none" stroke="#000000" d="M 471 1312 L 528 1312" stroke-miterlimit="10"/></g><g transform="translate(-318,-14) scale(1,1)"><path fill="#000000" stroke="none" d="M 517.8373251423759 1316.2095177560159 L 528 1312 L 517.8373251423758 1307.7904822439841"/></g><g transform="translate(-318,-14) scale(1,1)"><path fill="none" stroke="#000000" d="M 517.8373251423759 1316.2095177560159 L 528 1312 L 517.8373251423758 1307.7904822439841 L 517.8373251423759 1316.2095177560159" stroke-miterlimit="10"/></g><g transform="translate(-318,-14) scale(1,1)"><g><path fill="none" stroke="none"/><text fill="#000000" stroke="none" font-family="Arial" font-size="13px" font-style="normal" font-weight="normal" text-decoration="none" x="483" y="1304">False</text></g></g><g transform="translate(-318,-14) scale(1,1)"><path fill="none" stroke="#000000" d="M 413 1263 L 413 1296" stroke-miterlimit="10"/></g><g transform="translate(-318,-14) scale(1,1)"><path fill="#000000" stroke="none" d="M 408.790482243984 1285.837325142376 L 413 1296 L 417.209517756016 1285.837325142376"/></g><g transform="translate(-318,-14) scale(1,1)"><path fill="none" stroke="#000000" d="M 408.790482243984 1285.837325142376 L 413 1296 L 417.209517756016 1285.837325142376 L 408.790482243984 1285.837325142376" stroke-miterlimit="10"/></g><g transform="translate(-318,-14) scale(1,1)"><g><path fill="none" stroke="none"/><text fill="#000000" stroke="none" font-family="Arial" font-size="13px" font-style="normal" font-weight="normal" text-decoration="none" x="423" y="1285">True</text></g></g><g transform="translate(-318,-14) scale(1,1)"><path fill="none" stroke="#000000" d="M 577 1263 L 577 1296" stroke-miterlimit="10"/></g><g transform="translate(-318,-14) scale(1,1)"><path fill="#000000" stroke="none" d="M 572.790482243984 1285.837325142376 L 577 1296 L 581.209517756016 1285.837325142376"/></g><g transform="translate(-318,-14) scale(1,1)"><path fill="none" stroke="#000000" d="M 572.790482243984 1285.837325142376 L 577 1296 L 581.209517756016 1285.837325142376 L 572.790482243984 1285.837325142376" stroke-miterlimit="10"/></g><g transform="translate(-318,-14) scale(1,1)"><g><path fill="none" stroke="none"/><text fill="#000000" stroke="none" font-family="Arial" font-size="13px" font-style="normal" font-weight="normal" text-decoration="none" x="591" y="1285">True</text></g></g><g transform="translate(-318,-14) scale(1,1)"><path fill="none" stroke="#000000" d="M 465 1227 L 520 1227" stroke-miterlimit="10"/></g><g transform="translate(-318,-14) scale(1,1)"><path fill="#000000" stroke="none" d="M 509.83732514237585 1231.2095177560159 L 520 1227 L 509.83732514237585 1222.7904822439841"/></g><g transform="translate(-318,-14) scale(1,1)"><path fill="none" stroke="#000000" d="M 509.83732514237585 1231.2095177560159 L 520 1227 L 509.83732514237585 1222.7904822439841 L 509.83732514237585 1231.2095177560159" stroke-miterlimit="10"/></g><g transform="translate(-318,-14) scale(1,1)"><g><path fill="none" stroke="none"/><text fill="#000000" stroke="none" font-family="Arial" font-size="13px" font-style="normal" font-weight="normal" text-decoration="none" x="476" y="1219">False</text></g></g><g transform="translate(-318,-14) scale(1,1)"><path fill="none" stroke="#000000" d="M 633 1224 L 688 1224 M 688 1224 A 8 8 0 0 1 696 1232 L 696 1360 M 696 1360 A 8 8 0 0 1 688 1368 L 597 1368" stroke-miterlimit="10"/></g><g transform="translate(-318,-14) scale(1,1)"><path fill="#000000" stroke="none" d="M 607.1626748576241 1363.7904822439841 L 597 1368 L 607.1626748576241 1372.2095177560159"/></g><g transform="translate(-318,-14) scale(1,1)"><path fill="none" stroke="#000000" d="M 607.1626748576241 1363.7904822439841 L 597 1368 L 607.1626748576241 1372.2095177560159 L 607.1626748576241 1363.7904822439841" stroke-miterlimit="10"/></g><g transform="translate(-318,-14) scale(1,1)"><g><path fill="none" stroke="none"/><text fill="#000000" stroke="none" font-family="Arial" font-size="13px" font-style="normal" font-weight="normal" text-decoration="none" x="711" y="1301">False</text></g></g><g transform="translate(-318,-14) scale(1,1)"><path fill="none" stroke="#000000" d="M 580 1328 L 580 1352" stroke-miterlimit="10"/></g><g transform="translate(-318,-14) scale(1,1)"><path fill="#000000" stroke="none" d="M 575.790482243984 1341.837325142376 L 580 1352 L 584.209517756016 1341.837325142376"/></g><g transform="translate(-318,-14) scale(1,1)"><path fill="none" stroke="#000000" d="M 575.790482243984 1341.837325142376 L 580 1352 L 584.209517756016 1341.837325142376 L 575.790482243984 1341.837325142376" stroke-miterlimit="10"/></g><g transform="translate(-318,-14) scale(1,1)"><g><path fill="none" stroke="none"/><text fill="#000000" stroke="none" font-family="Arial" font-size="13px" font-style="normal" font-weight="normal" text-decoration="none" x="591" y="1346">False</text></g></g><g transform="translate(-318,-14) scale(1,1)"><path fill="none" stroke="#000000" d="M 568 1366 L 429 1366" stroke-miterlimit="10"/></g><g transform="translate(-318,-14) scale(1,1)"><path fill="#000000" stroke="none" d="M 439.16267485762415 1361.7904822439841 L 429 1366 L 439.16267485762415 1370.2095177560159"/></g><g transform="translate(-318,-14) scale(1,1)"><path fill="none" stroke="#000000" d="M 439.16267485762415 1361.7904822439841 L 429 1366 L 439.16267485762415 1370.2095177560159 L 439.16267485762415 1361.7904822439841" stroke-miterlimit="10"/></g><g transform="translate(-318,-14) scale(1,1)"><path fill="none" stroke="#000000" d="M 415 1328 L 415 1352" stroke-miterlimit="10"/></g><g transform="translate(-318,-14) scale(1,1)"><path fill="#000000" stroke="none" d="M 410.790482243984 1341.837325142376 L 415 1352 L 419.209517756016 1341.837325142376"/></g><g transform="translate(-318,-14) scale(1,1)"><path fill="none" stroke="#000000" d="M 410.790482243984 1341.837325142376 L 415 1352 L 419.209517756016 1341.837325142376 L 410.790482243984 1341.837325142376" stroke-miterlimit="10"/></g><g transform="translate(-318,-14) scale(1,1)"><g><path fill="none" stroke="none"/><text fill="#000000" stroke="none" font-family="Arial" font-size="13px" font-style="normal" font-weight="normal" text-decoration="none" x="431" y="1346">False</text></g></g><g transform="translate(-318,-14) scale(1,1)"><path fill="none" stroke="#000000" d="M 408 1095 L 408 1128" stroke-miterlimit="10"/></g><g transform="translate(-318,-14) scale(1,1)"><path fill="#000000" stroke="none" d="M 403.790482243984 1117.837325142376 L 408 1128 L 412.209517756016 1117.837325142376"/></g><g transform="translate(-318,-14) scale(1,1)"><path fill="none" stroke="#000000" d="M 403.790482243984 1117.837325142376 L 408 1128 L 412.209517756016 1117.837325142376 L 403.790482243984 1117.837325142376" stroke-miterlimit="10"/></g><g transform="translate(-318,-14) scale(1,1)"><g><path fill="none" stroke="none"/><text fill="#000000" stroke="none" font-family="Arial" font-size="13px" font-style="normal" font-weight="normal" text-decoration="none" x="430" y="1117">False</text></g></g><g transform="translate(-318,-14) scale(1,1)"><rect fill="#ffffff" stroke="none" x="344" y="1408" width="143" height="48"/></g><g transform="translate(-318,-14) scale(1,1)"><path fill="none" stroke="#000000" d="M 344 1408 L 487 1408 L 487 1456 L 344 1456 L 344 1408 Z Z" stroke-miterlimit="10"/></g><g transform="translate(-318,-14) scale(1,1)"><g><path fill="none" stroke="none"/><text fill="#000000" stroke="none" font-family="Arial" font-size="13px" font-style="normal" font-weight="normal" text-decoration="none" x="382.5" y="1430.5">print: rabat,</text><text fill="#000000" stroke="none" font-family="Arial" font-size="13px" font-style="normal" font-weight="normal" text-decoration="none" x="365.5" y="1443.5">forsendelse, total</text></g></g><g transform="translate(-318,-14) scale(1,1)"><path fill="none" stroke="#000000" d="M 414 1381 L 414 1408" stroke-miterlimit="10"/></g><g transform="translate(-318,-14) scale(1,1)"><path fill="#000000" stroke="none" d="M 409.790482243984 1397.837325142376 L 414 1408 L 418.209517756016 1397.837325142376"/></g><g transform="translate(-318,-14) scale(1,1)"><path fill="none" stroke="#000000" d="M 409.790482243984 1397.837325142376 L 414 1408 L 418.209517756016 1397.837325142376 L 409.790482243984 1397.837325142376" stroke-miterlimit="10"/></g><g transform="translate(-318,-14) scale(1,1)"><path fill="none" stroke="#000000" d="M 417 1456 L 417 1496" stroke-miterlimit="10"/></g><g transform="translate(-318,-14) scale(1,1)"><path fill="#000000" stroke="none" d="M 412.790482243984 1485.837325142376 L 417 1496 L 421.209517756016 1485.837325142376"/></g><g transform="translate(-318,-14) scale(1,1)"><path fill="none" stroke="#000000" d="M 412.790482243984 1485.837325142376 L 417 1496 L 421.209517756016 1485.837325142376 L 412.790482243984 1485.837325142376" stroke-miterlimit="10"/></g><g transform="translate(-318,-14) scale(1,1)"><rect fill="#ffffff" stroke="none" x="328" y="1128" width="176" height="32"/></g><g transform="translate(-318,-14) scale(1,1)"><path fill="none" stroke="#000000" d="M 328 1128 L 504 1128 L 504 1160 L 328 1160 L 328 1128 Z Z" stroke-miterlimit="10"/></g><g transform="translate(-318,-14) scale(1,1)"><g><path fill="none" stroke="none"/><text fill="#000000" stroke="none" font-family="Arial" font-size="13px" font-style="normal" font-weight="normal" text-decoration="none" x="389" y="1150.5">print total</text></g></g><g transform="translate(-318,-14) scale(1,1)"><path fill="none" stroke="#000000" d="M 414 1160 L 414 1192" stroke-miterlimit="10"/></g><g transform="translate(-318,-14) scale(1,1)"><path fill="#000000" stroke="none" d="M 409.790482243984 1181.837325142376 L 414 1192 L 418.209517756016 1181.837325142376"/></g><g transform="translate(-318,-14) scale(1,1)"><path fill="none" stroke="#000000" d="M 409.790482243984 1181.837325142376 L 414 1192 L 418.209517756016 1181.837325142376 L 409.790482243984 1181.837325142376" stroke-miterlimit="10"/></g></g></svg>