<svg version="1.1" xmlns="http://www.w3.org/2000/svg" xmlns:xlink="http://www.w3.org/1999/xlink" width="644" height="1836"><defs></defs><g><g transform="translate(-318,-14) scale(1,1)"><path fill="#ffffff" stroke="none" d="M 376.5 24 L 470.5 24 Q 487 24 487 40.5 L 487 39.5 Q 487 56 470.5 56 L 376.5 56 Q 360 56 360 39.5 L 360 40.5 Q 360 24 376.5 24 Z"></path></g><g transform="translate(-318,-14) scale(1,1)"><path fill="none" stroke="#000000" d="M 376.5 24 L 470.5 24 Q 487 24 487 40.5 L 487 39.5 Q 487 56 470.5 56 L 376.5 56 Q 360 56 360 39.5 L 360 40.5 Q 360 24 376.5 24 Z" stroke-miterlimit="10"></path></g><g transform="translate(-318,-14) scale(1,1)"><g><path fill="none" stroke="none"></path><text fill="#000000" stroke="none" font-family="Arial" font-size="13px" font-style="normal" font-weight="normal" text-decoration="none" x="409.5" y="46.5">Start</text></g></g><g transform="translate(-318,-14) scale(1,1)"><path fill="#ffffff" stroke="none" d="M 361 88 L 528 88 L 495 198 L 328 198 L 361 88"></path></g><g transform="translate(-318,-14) scale(1,1)"><path fill="none" stroke="#000000" d="M 361 88 L 528 88 L 495 198 L 328 198 L 361 88 L 361 88" stroke-miterlimit="10"></path></g><g transform="translate(-318,-14) scale(1,1)"><g><path fill="none" stroke="none"></path><text fill="#000000" stroke="none" font-family="Arial" font-size="13px" font-style="normal" font-weight="normal" text-decoration="none" x="378" y="110.5">int counter = 0;   </text><text fill="#000000" stroke="none" font-family="Arial" font-size="13px" font-style="normal" font-weight="normal" text-decoration="none" x="372.5" y="123.5">int maksBest = 10;</text><text fill="#000000" stroke="none" font-family="Arial" font-size="13px" font-style="normal" font-weight="normal" text-decoration="none" x="372" y="136.5">   int flereVarer = 1;</text><text fill="#000000" stroke="none" font-family="Arial" font-size="13px" font-style="normal" font-weight="normal" text-decoration="none" x="377" y="149.5"> float total = 0; int</text><text fill="#000000" stroke="none" font-family="Arial" font-size="13px" font-style="normal" font-weight="normal" text-decoration="none" x="377.5" y="162.5">antalTotal = 0; int</text><text fill="#000000" stroke="none" font-family="Arial" font-size="13px" font-style="normal" font-weight="normal" text-decoration="none" x="375.5" y="175.5">forsendelse = 0;   </text><text fill="#000000" stroke="none" font-family="Arial" font-size="13px" font-style="normal" font-weight="normal" text-decoration="none" x="391" y="188.5">int rabat = 0;</text></g></g><g transform="translate(-318,-14) scale(1,1)"><path fill="#ffffff" stroke="none" d="M 528 206 L 679 192 L 679 279 L 528 279 L 528 206"></path></g><g transform="translate(-318,-14) scale(1,1)"><path fill="none" stroke="#000000" d="M 528 206 L 679 192 L 679 279 L 528 279 L 528 206 L 528 206" stroke-miterlimit="10"></path></g><g transform="translate(-318,-14) scale(1,1)"><g><path fill="none" stroke="none"></path><text fill="#000000" stroke="none" font-family="Arial" font-size="13px" font-style="normal" font-weight="normal" text-decoration="none" x="551" y="249">vareNr; pris; antal;</text></g></g><g transform="translate(-318,-14) scale(1,1)"><path fill="#ffffff" stroke="none" d="M 562 536 L 656 536 L 638 608 L 544 608 L 562 536"></path></g><g transform="translate(-318,-14) scale(1,1)"><path fill="none" stroke="#000000" d="M 562 536 L 656 536 L 638 608 L 544 608 L 562 536 L 562 536" stroke-miterlimit="10"></path></g><g transform="translate(-318,-14) scale(1,1)"><g><path fill="none" stroke="none"></path><text fill="#000000" stroke="none" font-family="Arial" font-size="13px" font-style="normal" font-weight="normal" text-decoration="none" x="573" y="558.5">gem data</text><text fill="#000000" stroke="none" font-family="Arial" font-size="13px" font-style="normal" font-weight="normal" text-decoration="none" x="576" y="571.5">vareNr[];</text><text fill="#000000" stroke="none" font-family="Arial" font-size="13px" font-style="normal" font-weight="normal" text-decoration="none" x="583.5" y="584.5">pris[];</text><text fill="#000000" stroke="none" font-family="Arial" font-size="13px" font-style="normal" font-weight="normal" text-decoration="none" x="580" y="597.5">antal[];</text></g></g><g transform="translate(-318,-14) scale(1,1)"><rect fill="#ffffff" stroke="none" x="544" y="640" width="103" height="39"></rect></g><g transform="translate(-318,-14) scale(1,1)"><path fill="none" stroke="#000000" d="M 544 640 L 647 640 L 647 679 L 544 679 L 544 640 Z Z" stroke-miterlimit="10"></path></g><g transform="translate(-318,-14) scale(1,1)"><g><path fill="none" stroke="none"></path><text fill="#000000" stroke="none" font-family="Arial" font-size="13px" font-style="normal" font-weight="normal" text-decoration="none" x="566" y="662.5">counter++</text></g></g><g transform="translate(-318,-14) scale(1,1)"><path fill="#ffffff" stroke="none" d="M 552 724 L 639 712 L 639 783 L 552 783 L 552 724"></path></g><g transform="translate(-318,-14) scale(1,1)"><path fill="none" stroke="#000000" d="M 552 724 L 639 712 L 639 783 L 552 783 L 552 724 L 552 724" stroke-miterlimit="10"></path></g><g transform="translate(-318,-14) scale(1,1)"><g><path fill="none" stroke="none"></path><text fill="#000000" stroke="none" font-family="Arial" font-size="13px" font-style="normal" font-weight="normal" text-decoration="none" x="568" y="760">flereVarer</text></g></g><g transform="translate(-318,-14) scale(1,1)"><path fill="#ffffff" stroke="none" d="M 344 744 L 420 688 L 496 744 L 420 800 L 344 744"></path></g><g transform="translate(-318,-14) scale(1,1)"><path fill="none" stroke="#000000" d="M 344 744 L 420 688 L 496 744 L 420 800 L 344 744 L 344 744" stroke-miterlimit="10"></path></g><g transform="translate(-318,-14) scale(1,1)"><g><path fill="none" stroke="none"></path><text fill="#000000" stroke="none" font-family="Arial" font-size="13px" font-style="normal" font-weight="normal" text-decoration="none" x="392.5" y="731">counter &lt;</text><text fill="#000000" stroke="none" font-family="Arial" font-size="13px" font-style="normal" font-weight="normal" text-decoration="none" x="390.5" y="744">maksBest</text><text fill="#000000" stroke="none" font-family="Arial" font-size="13px" font-style="normal" font-weight="normal" text-decoration="none" x="411" y="757">&amp;&amp;</text><text fill="#000000" stroke="none" font-family="Arial" font-size="13px" font-style="normal" font-weight="normal" text-decoration="none" x="392.5" y="770">flereVarer</text></g></g><g transform="translate(-318,-14) scale(1,1)"><path fill="none" stroke="#000000" d="M 424 56 L 424 88" stroke-miterlimit="10"></path></g><g transform="translate(-318,-14) scale(1,1)"><path fill="#000000" stroke="none" d="M 419.790482243984 77.83732514237585 L 424 88 L 428.209517756016 77.83732514237585"></path></g><g transform="translate(-318,-14) scale(1,1)"><path fill="none" stroke="#000000" d="M 419.790482243984 77.83732514237585 L 424 88 L 428.209517756016 77.83732514237585 L 419.790482243984 77.83732514237585" stroke-miterlimit="10"></path></g><g transform="translate(-318,-14) scale(1,1)"><path fill="none" stroke="#000000" d="M 600 279 L 600 536" stroke-miterlimit="10"></path></g><g transform="translate(-318,-14) scale(1,1)"><path fill="#000000" stroke="none" d="M 595.790482243984 525.8373251423759 L 600 536 L 604.209517756016 525.8373251423759"></path></g><g transform="translate(-318,-14) scale(1,1)"><path fill="none" stroke="#000000" d="M 595.790482243984 525.8373251423759 L 600 536 L 604.209517756016 525.8373251423759 L 595.790482243984 525.8373251423759" stroke-miterlimit="10"></path></g><g transform="translate(-318,-14) scale(1,1)"><path fill="none" stroke="#000000" d="M 600 608 L 600 640" stroke-miterlimit="10"></path></g><g transform="translate(-318,-14) scale(1,1)"><path fill="#000000" stroke="none" d="M 595.790482243984 629.8373251423759 L 600 640 L 604.209517756016 629.8373251423759"></path></g><g transform="translate(-318,-14) scale(1,1)"><path fill="none" stroke="#000000" d="M 595.790482243984 629.8373251423759 L 600 640 L 604.209517756016 629.8373251423759 L 595.790482243984 629.8373251423759" stroke-miterlimit="10"></path></g><g transform="translate(-318,-14) scale(1,1)"><path fill="none" stroke="#000000" d="M 600 679 L 600 712" stroke-miterlimit="10"></path></g><g transform="translate(-318,-14) scale(1,1)"><path fill="#000000" stroke="none" d="M 595.790482243984 701.8373251423759 L 600 712 L 604.209517756016 701.8373251423759"></path></g><g transform="translate(-318,-14) scale(1,1)"><path fill="none" stroke="#000000" d="M 595.790482243984 701.8373251423759 L 600 712 L 604.209517756016 701.8373251423759 L 595.790482243984 701.8373251423759" stroke-miterlimit="10"></path></g><g transform="translate(-318,-14) scale(1,1)"><path fill="none" stroke="#000000" d="M 552 747 L 496 747" stroke-miterlimit="10"></path></g><g transform="translate(-318,-14) scale(1,1)"><path fill="#000000" stroke="none" d="M 506.16267485762415 742.790482243984 L 496 747 L 506.16267485762415 751.209517756016"></path></g><g transform="translate(-318,-14) scale(1,1)"><path fill="none" stroke="#000000" d="M 506.16267485762415 742.790482243984 L 496 747 L 506.16267485762415 751.209517756016 L 506.16267485762415 742.790482243984" stroke-miterlimit="10"></path></g><g transform="translate(-318,-14) scale(1,1)"><path fill="#ffffff" stroke="none" d="M 408 247.5 C 408 238.9395856 414.9395856 232 423.5 232 C 432.0604144 232 439 238.9395856 439 247.5 C 439 256.0604144 432.0604144 263 423.5 263 C 414.9395856 263 408 256.0604144 408 247.5 Z"></path></g><g transform="translate(-318,-14) scale(1,1)"><path fill="none" stroke="#000000" d="M 408 247.5 C 408 238.9395856 414.9395856 232 423.5 232 C 432.0604144 232 439 238.9395856 439 247.5 C 439 256.0604144 432.0604144 263 423.5 263 C 414.9395856 263 408 256.0604144 408 247.5 Z" stroke-miterlimit="10"></path></g><g transform="translate(-318,-14) scale(1,1)"><g><path fill="none" stroke="none"></path></g></g><g transform="translate(-318,-14) scale(1,1)"><path fill="none" stroke="#000000" d="M 423 688 L 423 263" stroke-miterlimit="10"></path></g><g transform="translate(-318,-14) scale(1,1)"><path fill="#000000" stroke="none" d="M 427.209517756016 273.16267485762415 L 423 263 L 418.790482243984 273.16267485762415"></path></g><g transform="translate(-318,-14) scale(1,1)"><path fill="none" stroke="#000000" d="M 427.209517756016 273.16267485762415 L 423 263 L 418.790482243984 273.16267485762415 L 427.209517756016 273.16267485762415" stroke-miterlimit="10"></path></g><g transform="translate(-318,-14) scale(1,1)"><g><path fill="none" stroke="none"></path><text fill="#000000" stroke="none" font-family="Arial" font-size="13px" font-style="normal" font-weight="normal" text-decoration="none" x="384" y="489">True</text></g></g><g transform="translate(-318,-14) scale(1,1)"><path fill="none" stroke="#000000" d="M 439 246 L 528 246" stroke-miterlimit="10"></path></g><g transform="translate(-318,-14) scale(1,1)"><path fill="#000000" stroke="none" d="M 517.8373251423759 250.209517756016 L 528 246 L 517.8373251423758 241.790482243984"></path></g><g transform="translate(-318,-14) scale(1,1)"><path fill="none" stroke="#000000" d="M 517.8373251423759 250.209517756016 L 528 246 L 517.8373251423758 241.790482243984 L 517.8373251423759 250.209517756016" stroke-miterlimit="10"></path></g><g transform="translate(-318,-14) scale(1,1)"><path fill="none" stroke="#000000" d="M 424 198 L 424 232" stroke-miterlimit="10"></path></g><g transform="translate(-318,-14) scale(1,1)"><path fill="#000000" stroke="none" d="M 419.790482243984 221.83732514237585 L 424 232 L 428.209517756016 221.83732514237585"></path></g><g transform="translate(-318,-14) scale(1,1)"><path fill="none" stroke="#000000" d="M 419.790482243984 221.83732514237585 L 424 232 L 428.209517756016 221.83732514237585 L 419.790482243984 221.83732514237585" stroke-miterlimit="10"></path></g><g transform="translate(-318,-14) scale(1,1)"><path fill="#ffffff" stroke="none" d="M 360 879.5 L 418.5 832 L 477 879.5 L 418.5 927 L 360 879.5"></path></g><g transform="translate(-318,-14) scale(1,1)"><path fill="none" stroke="#000000" d="M 360 879.5 L 418.5 832 L 477 879.5 L 418.5 927 L 360 879.5 L 360 879.5" stroke-miterlimit="10"></path></g><g transform="translate(-318,-14) scale(1,1)"><g><path fill="none" stroke="none"></path><text fill="#000000" stroke="none" font-family="Arial" font-size="13px" font-style="normal" font-weight="normal" text-decoration="none" x="397" y="873">counter</text><text fill="#000000" stroke="none" font-family="Arial" font-size="13px" font-style="normal" font-weight="normal" text-decoration="none" x="410.5" y="886">&gt;=</text><text fill="#000000" stroke="none" font-family="Arial" font-size="13px" font-style="normal" font-weight="normal" text-decoration="none" x="389" y="899">maksBest</text></g></g><g transform="translate(-318,-14) scale(1,1)"><path fill="#ffffff" stroke="none" d="M 532 912 L 671 912 L 643 970 L 504 970 L 532 912"></path></g><g transform="translate(-318,-14) scale(1,1)"><path fill="none" stroke="#000000" d="M 532 912 L 671 912 L 643 970 L 504 970 L 532 912 L 532 912" stroke-miterlimit="10"></path></g><g transform="translate(-318,-14) scale(1,1)"><g><path fill="none" stroke="none"></path><text fill="#000000" stroke="none" font-family="Arial" font-size="13px" font-style="normal" font-weight="normal" text-decoration="none" x="569" y="934.5">"Maks</text><text fill="#000000" stroke="none" font-family="Arial" font-size="13px" font-style="normal" font-weight="normal" text-decoration="none" x="554.5" y="947.5">bestilling er</text><text fill="#000000" stroke="none" font-family="Arial" font-size="13px" font-style="normal" font-weight="normal" text-decoration="none" x="569" y="960.5">naaet"</text></g></g><g transform="translate(-318,-14) scale(1,1)"><path fill="none" stroke="#000000" d="M 419 800 L 419 832" stroke-miterlimit="10"></path></g><g transform="translate(-318,-14) scale(1,1)"><path fill="#000000" stroke="none" d="M 414.790482243984 821.8373251423759 L 419 832 L 423.209517756016 821.8373251423759"></path></g><g transform="translate(-318,-14) scale(1,1)"><path fill="none" stroke="#000000" d="M 414.790482243984 821.8373251423759 L 419 832 L 423.209517756016 821.8373251423759 L 414.790482243984 821.8373251423759" stroke-miterlimit="10"></path></g><g transform="translate(-318,-14) scale(1,1)"><g><path fill="none" stroke="none"></path><text fill="#000000" stroke="none" font-family="Arial" font-size="13px" font-style="normal" font-weight="normal" text-decoration="none" x="431" y="814">False</text></g></g><g transform="translate(-318,-14) scale(1,1)"><rect fill="#ffffff" stroke="none" x="384" y="1032" width="64" height="32"></rect></g><g transform="translate(-318,-14) scale(1,1)"><path fill="none" stroke="#000000" d="M 384 1032 L 448 1032 L 448 1064 L 384 1064 L 384 1032 Z Z" stroke-miterlimit="10"></path></g><g transform="translate(-318,-14) scale(1,1)"><g><path fill="none" stroke="none"></path><text fill="#000000" stroke="none" font-family="Arial" font-size="13px" font-style="normal" font-weight="normal" text-decoration="none" x="403" y="1054.5">i = 0</text></g></g><g transform="translate(-318,-14) scale(1,1)"><path fill="#ffffff" stroke="none" d="M 368 1315.5 L 410.5 1280 L 453 1315.5 L 410.5 1351 L 368 1315.5"></path></g><g transform="translate(-318,-14) scale(1,1)"><path fill="none" stroke="#000000" d="M 368 1315.5 L 410.5 1280 L 453 1315.5 L 410.5 1351 L 368 1315.5 L 368 1315.5" stroke-miterlimit="10"></path></g><g transform="translate(-318,-14) scale(1,1)"><g><path fill="none" stroke="none"></path><text fill="#000000" stroke="none" font-family="Arial" font-size="13px" font-style="normal" font-weight="normal" text-decoration="none" x="403" y="1315.5">i &lt;</text><text fill="#000000" stroke="none" font-family="Arial" font-size="13px" font-style="normal" font-weight="normal" text-decoration="none" x="389" y="1328.5">counter</text></g></g><g transform="translate(-318,-14) scale(1,1)"><path fill="#ffffff" stroke="none" d="M 392 995.5 C 392 984.7304464 400.7304464 976 411.5 976 C 422.2695536 976 431 984.7304464 431 995.5 C 431 1006.2695536 422.2695536 1015 411.5 1015 C 400.7304464 1015 392 1006.2695536 392 995.5 Z"></path></g><g transform="translate(-318,-14) scale(1,1)"><path fill="none" stroke="#000000" d="M 392 995.5 C 392 984.7304464 400.7304464 976 411.5 976 C 422.2695536 976 431 984.7304464 431 995.5 C 431 1006.2695536 422.2695536 1015 411.5 1015 C 400.7304464 1015 392 1006.2695536 392 995.5 Z" stroke-miterlimit="10"></path></g><g transform="translate(-318,-14) scale(1,1)"><g><path fill="none" stroke="none"></path></g></g><g transform="translate(-318,-14) scale(1,1)"><path fill="none" stroke="#000000" d="M 414 927 L 414 976" stroke-miterlimit="10"></path></g><g transform="translate(-318,-14) scale(1,1)"><path fill="#000000" stroke="none" d="M 409.790482243984 965.8373251423759 L 414 976 L 418.209517756016 965.8373251423759"></path></g><g transform="translate(-318,-14) scale(1,1)"><path fill="none" stroke="#000000" d="M 409.790482243984 965.8373251423759 L 414 976 L 418.209517756016 965.8373251423759 L 409.790482243984 965.8373251423759" stroke-miterlimit="10"></path></g><g transform="translate(-318,-14) scale(1,1)"><g><path fill="none" stroke="none"></path><text fill="#000000" stroke="none" font-family="Arial" font-size="13px" font-style="normal" font-weight="normal" text-decoration="none" x="420" y="957">False</text></g></g><g transform="translate(-318,-14) scale(1,1)"><path fill="none" stroke="#000000" d="M 477 880 L 576 880 M 576 880 A 8 8 0 0 1 584 888 L 584 912" stroke-miterlimit="10"></path></g><g transform="translate(-318,-14) scale(1,1)"><path fill="#000000" stroke="none" d="M 579.790482243984 901.8373251423759 L 584 912 L 588.209517756016 901.8373251423759"></path></g><g transform="translate(-318,-14) scale(1,1)"><path fill="none" stroke="#000000" d="M 579.790482243984 901.8373251423759 L 584 912 L 588.209517756016 901.8373251423759 L 579.790482243984 901.8373251423759" stroke-miterlimit="10"></path></g><g transform="translate(-318,-14) scale(1,1)"><g><path fill="none" stroke="none"></path><text fill="#000000" stroke="none" font-family="Arial" font-size="13px" font-style="normal" font-weight="normal" text-decoration="none" x="507" y="868">True</text></g></g><g transform="translate(-318,-14) scale(1,1)"><path fill="none" stroke="#000000" d="M 584 970 L 584 992 M 584 992 A 8 8 0 0 1 576 1000 L 431 1000" stroke-miterlimit="10"></path></g><g transform="translate(-318,-14) scale(1,1)"><path fill="#000000" stroke="none" d="M 441.16267485762415 995.790482243984 L 431 1000 L 441.16267485762415 1004.209517756016"></path></g><g transform="translate(-318,-14) scale(1,1)"><path fill="none" stroke="#000000" d="M 441.16267485762415 995.790482243984 L 431 1000 L 441.16267485762415 1004.209517756016 L 441.16267485762415 995.790482243984" stroke-miterlimit="10"></path></g><g transform="translate(-318,-14) scale(1,1)"><rect fill="#ffffff" stroke="none" x="616" y="1208" width="72" height="72"></rect></g><g transform="translate(-318,-14) scale(1,1)"><path fill="none" stroke="#000000" d="M 616 1208 L 688 1208 L 688 1280 L 616 1280 L 616 1208 Z Z" stroke-miterlimit="10"></path></g><g transform="translate(-318,-14) scale(1,1)"><g><path fill="none" stroke="none"></path><text fill="#000000" stroke="none" font-family="Arial" font-size="13px" font-style="normal" font-weight="normal" text-decoration="none" x="639.5" y="1230.5">print</text><text fill="#000000" stroke="none" font-family="Arial" font-size="13px" font-style="normal" font-weight="normal" text-decoration="none" x="626.5" y="1243.5">vareNr[i];</text><text fill="#000000" stroke="none" font-family="Arial" font-size="13px" font-style="normal" font-weight="normal" text-decoration="none" x="634" y="1256.5">pris[i];</text><text fill="#000000" stroke="none" font-family="Arial" font-size="13px" font-style="normal" font-weight="normal" text-decoration="none" x="630.5" y="1269.5">antal[i];</text></g></g><g transform="translate(-318,-14) scale(1,1)"><path fill="#ffffff" stroke="none" d="M 400 1102.5 C 400 1094.4918704 406.4918704 1088 414.5 1088 C 422.5081296 1088 429 1094.4918704 429 1102.5 C 429 1110.5081296 422.5081296 1117 414.5 1117 C 406.4918704 1117 400 1110.5081296 400 1102.5 Z"></path></g><g transform="translate(-318,-14) scale(1,1)"><path fill="none" stroke="#000000" d="M 400 1102.5 C 400 1094.4918704 406.4918704 1088 414.5 1088 C 422.5081296 1088 429 1094.4918704 429 1102.5 C 429 1110.5081296 422.5081296 1117 414.5 1117 C 406.4918704 1117 400 1110.5081296 400 1102.5 Z" stroke-miterlimit="10"></path></g><g transform="translate(-318,-14) scale(1,1)"><g><path fill="none" stroke="none"></path></g></g><g transform="translate(-318,-14) scale(1,1)"><path fill="none" stroke="#000000" d="M 413 1015 L 413 1032" stroke-miterlimit="10"></path></g><g transform="translate(-318,-14) scale(1,1)"><path fill="#000000" stroke="none" d="M 408.790482243984 1021.8373251423759 L 413 1032 L 417.209517756016 1021.8373251423759"></path></g><g transform="translate(-318,-14) scale(1,1)"><path fill="none" stroke="#000000" d="M 408.790482243984 1021.8373251423759 L 413 1032 L 417.209517756016 1021.8373251423759 L 408.790482243984 1021.8373251423759" stroke-miterlimit="10"></path></g><g transform="translate(-318,-14) scale(1,1)"><rect fill="#ffffff" stroke="none" x="504" y="1088" width="48" height="32"></rect></g><g transform="translate(-318,-14) scale(1,1)"><path fill="none" stroke="#000000" d="M 504 1088 L 552 1088 L 552 1120 L 504 1120 L 504 1088 Z Z" stroke-miterlimit="10"></path></g><g transform="translate(-318,-14) scale(1,1)"><g><path fill="none" stroke="none"></path><text fill="#000000" stroke="none" font-family="Arial" font-size="13px" font-style="normal" font-weight="normal" text-decoration="none" x="518.5" y="1110.5">i++</text></g></g><g transform="translate(-318,-14) scale(1,1)"><path fill="none" stroke="#000000" d="M 504 1104 L 429 1104" stroke-miterlimit="10"></path></g><g transform="translate(-318,-14) scale(1,1)"><path fill="#000000" stroke="none" d="M 439.16267485762415 1099.7904822439841 L 429 1104 L 439.16267485762415 1108.2095177560159"></path></g><g transform="translate(-318,-14) scale(1,1)"><path fill="none" stroke="#000000" d="M 439.16267485762415 1099.7904822439841 L 429 1104 L 439.16267485762415 1108.2095177560159 L 439.16267485762415 1099.7904822439841" stroke-miterlimit="10"></path></g><g transform="translate(-318,-14) scale(1,1)"><path fill="none" stroke="#000000" d="M 415 1064 L 415 1088" stroke-miterlimit="10"></path></g><g transform="translate(-318,-14) scale(1,1)"><path fill="#000000" stroke="none" d="M 410.790482243984 1077.837325142376 L 415 1088 L 419.209517756016 1077.837325142376"></path></g><g transform="translate(-318,-14) scale(1,1)"><path fill="none" stroke="#000000" d="M 410.790482243984 1077.837325142376 L 415 1088 L 419.209517756016 1077.837325142376 L 410.790482243984 1077.837325142376" stroke-miterlimit="10"></path></g><g transform="translate(-318,-14) scale(1,1)"><path fill="none" stroke="#000000" d="M 413 1117 L 413 1280" stroke-miterlimit="10"></path></g><g transform="translate(-318,-14) scale(1,1)"><path fill="#000000" stroke="none" d="M 408.790482243984 1269.837325142376 L 413 1280 L 417.209517756016 1269.837325142376"></path></g><g transform="translate(-318,-14) scale(1,1)"><path fill="none" stroke="#000000" d="M 408.790482243984 1269.837325142376 L 413 1280 L 417.209517756016 1269.837325142376 L 408.790482243984 1269.837325142376" stroke-miterlimit="10"></path></g><g transform="translate(-318,-14) scale(1,1)"><path fill="none" stroke="#000000" d="M 453 1316 L 636 1316 M 636 1316 A 8 8 0 0 0 644 1308 L 644 1280" stroke-miterlimit="10"></path></g><g transform="translate(-318,-14) scale(1,1)"><path fill="#000000" stroke="none" d="M 648.209517756016 1290.162674857624 L 644 1280 L 639.790482243984 1290.162674857624"></path></g><g transform="translate(-318,-14) scale(1,1)"><path fill="none" stroke="#000000" d="M 648.209517756016 1290.162674857624 L 644 1280 L 639.790482243984 1290.162674857624 L 648.209517756016 1290.162674857624" stroke-miterlimit="10"></path></g><g transform="translate(-318,-14) scale(1,1)"><g><path fill="none" stroke="none"></path><text fill="#000000" stroke="none" font-family="Arial" font-size="13px" font-style="normal" font-weight="normal" text-decoration="none" x="527" y="1301">True</text></g></g><g transform="translate(-318,-14) scale(1,1)"><path fill="#ffffff" stroke="none" d="M 376.5 1808 L 462.5 1808 Q 479 1808 479 1824.5 L 479 1823.5 Q 479 1840 462.5 1840 L 376.5 1840 Q 360 1840 360 1823.5 L 360 1824.5 Q 360 1808 376.5 1808 Z"></path></g><g transform="translate(-318,-14) scale(1,1)"><path fill="none" stroke="#000000" d="M 376.5 1808 L 462.5 1808 Q 479 1808 479 1824.5 L 479 1823.5 Q 479 1840 462.5 1840 L 376.5 1840 Q 360 1840 360 1823.5 L 360 1824.5 Q 360 1808 376.5 1808 Z" stroke-miterlimit="10"></path></g><g transform="translate(-318,-14) scale(1,1)"><g><path fill="none" stroke="none"></path><text fill="#000000" stroke="none" font-family="Arial" font-size="13px" font-style="normal" font-weight="normal" text-decoration="none" x="408" y="1830.5">End</text></g></g><g transform="translate(-318,-14) scale(1,1)"><rect fill="#ffffff" stroke="none" x="560" y="1136" width="176" height="45"></rect></g><g transform="translate(-318,-14) scale(1,1)"><path fill="none" stroke="#000000" d="M 560 1136 L 736 1136 L 736 1181 L 560 1181 L 560 1136 Z Z" stroke-miterlimit="10"></path></g><g transform="translate(-318,-14) scale(1,1)"><g><path fill="none" stroke="none"></path><text fill="#000000" stroke="none" font-family="Arial" font-size="13px" font-style="normal" font-weight="normal" text-decoration="none" x="579.5" y="1158.5">total += pris[i] * antal[i];</text><text fill="#000000" stroke="none" font-family="Arial" font-size="13px" font-style="normal" font-weight="normal" text-decoration="none" x="586.5" y="1171.5">antalTotal += antal[i];</text></g></g><g transform="translate(-318,-14) scale(1,1)"><path fill="none" stroke="#000000" d="M 649 1208 L 649 1181" stroke-miterlimit="10"></path></g><g transform="translate(-318,-14) scale(1,1)"><path fill="#000000" stroke="none" d="M 653.209517756016 1191.162674857624 L 649 1181 L 644.790482243984 1191.162674857624"></path></g><g transform="translate(-318,-14) scale(1,1)"><path fill="none" stroke="#000000" d="M 653.209517756016 1191.162674857624 L 649 1181 L 644.790482243984 1191.162674857624 L 653.209517756016 1191.162674857624" stroke-miterlimit="10"></path></g><g transform="translate(-318,-14) scale(1,1)"><path fill="none" stroke="#000000" d="M 648 1136 L 648 1112 M 648 1112 A 8 8 0 0 0 640 1104 L 552 1104" stroke-miterlimit="10"></path></g><g transform="translate(-318,-14) scale(1,1)"><path fill="#000000" stroke="none" d="M 562.1626748576241 1099.7904822439841 L 552 1104 L 562.1626748576241 1108.2095177560159"></path></g><g transform="translate(-318,-14) scale(1,1)"><path fill="none" stroke="#000000" d="M 562.1626748576241 1099.7904822439841 L 552 1104 L 562.1626748576241 1108.2095177560159 L 562.1626748576241 1099.7904822439841" stroke-miterlimit="10"></path></g><g transform="translate(-318,-14) scale(1,1)"><path fill="#ffffff" stroke="none" d="M 352 1483.5 L 408.5 1448 L 465 1483.5 L 408.5 1519 L 352 1483.5"></path></g><g transform="translate(-318,-14) scale(1,1)"><path fill="none" stroke="#000000" d="M 352 1483.5 L 408.5 1448 L 465 1483.5 L 408.5 1519 L 352 1483.5 L 352 1483.5" stroke-miterlimit="10"></path></g><g transform="translate(-318,-14) scale(1,1)"><g><path fill="none" stroke="none"></path><text fill="#000000" stroke="none" font-family="Arial" font-size="13px" font-style="normal" font-weight="normal" text-decoration="none" x="385" y="1483.5">if total &gt;</text><text fill="#000000" stroke="none" font-family="Arial" font-size="13px" font-style="normal" font-weight="normal" text-decoration="none" x="398" y="1496.5">500</text></g></g><g transform="translate(-318,-14) scale(1,1)"><path fill="#ffffff" stroke="none" d="M 520 1483.5 L 576.5 1448 L 633 1483.5 L 576.5 1519 L 520 1483.5"></path></g><g transform="translate(-318,-14) scale(1,1)"><path fill="none" stroke="#000000" d="M 520 1483.5 L 576.5 1448 L 633 1483.5 L 576.5 1519 L 520 1483.5 L 520 1483.5" stroke-miterlimit="10"></path></g><g transform="translate(-318,-14) scale(1,1)"><g><path fill="none" stroke="none"></path><text fill="#000000" stroke="none" font-family="Arial" font-size="13px" font-style="normal" font-weight="normal" text-decoration="none" x="553" y="1483.5">if total &lt;</text><text fill="#000000" stroke="none" font-family="Arial" font-size="13px" font-style="normal" font-weight="normal" text-decoration="none" x="566" y="1496.5">200</text></g></g><g transform="translate(-318,-14) scale(1,1)"><path fill="#ffffff" stroke="none" d="M 400 1678.5 C 400 1670.4918704 406.4918704 1664 414.5 1664 C 422.5081296 1664 429 1670.4918704 429 1678.5 C 429 1686.5081296 422.5081296 1693 414.5 1693 C 406.4918704 1693 400 1686.5081296 400 1678.5 Z"></path></g><g transform="translate(-318,-14) scale(1,1)"><path fill="none" stroke="#000000" d="M 400 1678.5 C 400 1670.4918704 406.4918704 1664 414.5 1664 C 422.5081296 1664 429 1670.4918704 429 1678.5 C 429 1686.5081296 422.5081296 1693 414.5 1693 C 406.4918704 1693 400 1686.5081296 400 1678.5 Z" stroke-miterlimit="10"></path></g><g transform="translate(-318,-14) scale(1,1)"><g><path fill="none" stroke="none"></path></g></g><g transform="translate(-318,-14) scale(1,1)"><rect fill="#ffffff" stroke="none" x="344" y="1544" width="128" height="48"></rect></g><g transform="translate(-318,-14) scale(1,1)"><path fill="none" stroke="#000000" d="M 344 1544 L 472 1544 L 472 1592 L 344 1592 L 344 1544 Z Z" stroke-miterlimit="10"></path></g><g transform="translate(-318,-14) scale(1,1)"><g><path fill="none" stroke="none"></path><text fill="#000000" stroke="none" font-family="Arial" font-size="13px" font-style="normal" font-weight="normal" text-decoration="none" x="366" y="1566.5">total *= 0.9;    </text><text fill="#000000" stroke="none" font-family="Arial" font-size="13px" font-style="normal" font-weight="normal" text-decoration="none" x="355.5" y="1579.5">rabat = total * 0.1;</text></g></g><g transform="translate(-318,-14) scale(1,1)"><rect fill="#ffffff" stroke="none" x="528" y="1552" width="103" height="32"></rect></g><g transform="translate(-318,-14) scale(1,1)"><path fill="none" stroke="#000000" d="M 528 1552 L 631 1552 L 631 1584 L 528 1584 L 528 1552 Z Z" stroke-miterlimit="10"></path></g><g transform="translate(-318,-14) scale(1,1)"><g><path fill="none" stroke="none"></path><text fill="#000000" stroke="none" font-family="Arial" font-size="13px" font-style="normal" font-weight="normal" text-decoration="none" x="546" y="1574.5">total += 50;</text></g></g><g transform="translate(-318,-14) scale(1,1)"><path fill="#ffffff" stroke="none" d="M 568 1678.5 C 568 1670.4918704 574.4918704 1664 582.5 1664 C 590.5081296 1664 597 1670.4918704 597 1678.5 C 597 1686.5081296 590.5081296 1693 582.5 1693 C 574.4918704 1693 568 1686.5081296 568 1678.5 Z"></path></g><g transform="translate(-318,-14) scale(1,1)"><path fill="none" stroke="#000000" d="M 568 1678.5 C 568 1670.4918704 574.4918704 1664 582.5 1664 C 590.5081296 1664 597 1670.4918704 597 1678.5 C 597 1686.5081296 590.5081296 1693 582.5 1693 C 574.4918704 1693 568 1686.5081296 568 1678.5 Z" stroke-miterlimit="10"></path></g><g transform="translate(-318,-14) scale(1,1)"><g><path fill="none" stroke="none"></path></g></g><g transform="translate(-318,-14) scale(1,1)"><path fill="none" stroke="#000000" d="M 472 1568 L 528 1568" stroke-miterlimit="10"></path></g><g transform="translate(-318,-14) scale(1,1)"><path fill="#000000" stroke="none" d="M 517.8373251423759 1572.2095177560159 L 528 1568 L 517.8373251423758 1563.7904822439841"></path></g><g transform="translate(-318,-14) scale(1,1)"><path fill="none" stroke="#000000" d="M 517.8373251423759 1572.2095177560159 L 528 1568 L 517.8373251423758 1563.7904822439841 L 517.8373251423759 1572.2095177560159" stroke-miterlimit="10"></path></g><g transform="translate(-318,-14) scale(1,1)"><g><path fill="none" stroke="none"></path><text fill="#000000" stroke="none" font-family="Arial" font-size="13px" font-style="normal" font-weight="normal" text-decoration="none" x="484" y="1560">False</text></g></g><g transform="translate(-318,-14) scale(1,1)"><path fill="none" stroke="#000000" d="M 413 1519 L 413 1544" stroke-miterlimit="10"></path></g><g transform="translate(-318,-14) scale(1,1)"><path fill="#000000" stroke="none" d="M 408.790482243984 1533.837325142376 L 413 1544 L 417.209517756016 1533.837325142376"></path></g><g transform="translate(-318,-14) scale(1,1)"><path fill="none" stroke="#000000" d="M 408.790482243984 1533.837325142376 L 413 1544 L 417.209517756016 1533.837325142376 L 408.790482243984 1533.837325142376" stroke-miterlimit="10"></path></g><g transform="translate(-318,-14) scale(1,1)"><g><path fill="none" stroke="none"></path><text fill="#000000" stroke="none" font-family="Arial" font-size="13px" font-style="normal" font-weight="normal" text-decoration="none" x="424" y="1537">True</text></g></g><g transform="translate(-318,-14) scale(1,1)"><path fill="none" stroke="#000000" d="M 577 1519 L 577 1552" stroke-miterlimit="10"></path></g><g transform="translate(-318,-14) scale(1,1)"><path fill="#000000" stroke="none" d="M 572.790482243984 1541.837325142376 L 577 1552 L 581.209517756016 1541.837325142376"></path></g><g transform="translate(-318,-14) scale(1,1)"><path fill="none" stroke="#000000" d="M 572.790482243984 1541.837325142376 L 577 1552 L 581.209517756016 1541.837325142376 L 572.790482243984 1541.837325142376" stroke-miterlimit="10"></path></g><g transform="translate(-318,-14) scale(1,1)"><g><path fill="none" stroke="none"></path><text fill="#000000" stroke="none" font-family="Arial" font-size="13px" font-style="normal" font-weight="normal" text-decoration="none" x="592" y="1541">True</text></g></g><g transform="translate(-318,-14) scale(1,1)"><path fill="none" stroke="#000000" d="M 465 1483 L 520 1483" stroke-miterlimit="10"></path></g><g transform="translate(-318,-14) scale(1,1)"><path fill="#000000" stroke="none" d="M 509.83732514237585 1487.2095177560159 L 520 1483 L 509.83732514237585 1478.7904822439841"></path></g><g transform="translate(-318,-14) scale(1,1)"><path fill="none" stroke="#000000" d="M 509.83732514237585 1487.2095177560159 L 520 1483 L 509.83732514237585 1478.7904822439841 L 509.83732514237585 1487.2095177560159" stroke-miterlimit="10"></path></g><g transform="translate(-318,-14) scale(1,1)"><g><path fill="none" stroke="none"></path><text fill="#000000" stroke="none" font-family="Arial" font-size="13px" font-style="normal" font-weight="normal" text-decoration="none" x="476" y="1475">False</text></g></g><g transform="translate(-318,-14) scale(1,1)"><path fill="none" stroke="#000000" d="M 633 1475 L 688 1475 M 688 1475 A 8 8 0 0 1 696 1483 L 696 1672 M 696 1672 A 8 8 0 0 1 688 1680 L 597 1680" stroke-miterlimit="10"></path></g><g transform="translate(-318,-14) scale(1,1)"><path fill="#000000" stroke="none" d="M 607.1626748576241 1675.7904822439841 L 597 1680 L 607.1626748576241 1684.2095177560159"></path></g><g transform="translate(-318,-14) scale(1,1)"><path fill="none" stroke="#000000" d="M 607.1626748576241 1675.7904822439841 L 597 1680 L 607.1626748576241 1684.2095177560159 L 607.1626748576241 1675.7904822439841" stroke-miterlimit="10"></path></g><g transform="translate(-318,-14) scale(1,1)"><g><path fill="none" stroke="none"></path><text fill="#000000" stroke="none" font-family="Arial" font-size="13px" font-style="normal" font-weight="normal" text-decoration="none" x="711" y="1582">False</text></g></g><g transform="translate(-318,-14) scale(1,1)"><path fill="none" stroke="#000000" d="M 580 1584 L 580 1664" stroke-miterlimit="10"></path></g><g transform="translate(-318,-14) scale(1,1)"><path fill="#000000" stroke="none" d="M 575.790482243984 1653.837325142376 L 580 1664 L 584.209517756016 1653.837325142376"></path></g><g transform="translate(-318,-14) scale(1,1)"><path fill="none" stroke="#000000" d="M 575.790482243984 1653.837325142376 L 580 1664 L 584.209517756016 1653.837325142376 L 575.790482243984 1653.837325142376" stroke-miterlimit="10"></path></g><g transform="translate(-318,-14) scale(1,1)"><g><path fill="none" stroke="none"></path><text fill="#000000" stroke="none" font-family="Arial" font-size="13px" font-style="normal" font-weight="normal" text-decoration="none" x="591" y="1630">False</text></g></g><g transform="translate(-318,-14) scale(1,1)"><path fill="none" stroke="#000000" d="M 568 1678 L 429 1678" stroke-miterlimit="10"></path></g><g transform="translate(-318,-14) scale(1,1)"><path fill="#000000" stroke="none" d="M 439.16267485762415 1673.7904822439841 L 429 1678 L 439.16267485762415 1682.2095177560159"></path></g><g transform="translate(-318,-14) scale(1,1)"><path fill="none" stroke="#000000" d="M 439.16267485762415 1673.7904822439841 L 429 1678 L 439.16267485762415 1682.2095177560159 L 439.16267485762415 1673.7904822439841" stroke-miterlimit="10"></path></g><g transform="translate(-318,-14) scale(1,1)"><path fill="none" stroke="#000000" d="M 415 1592 L 415 1664" stroke-miterlimit="10"></path></g><g transform="translate(-318,-14) scale(1,1)"><path fill="#000000" stroke="none" d="M 410.790482243984 1653.837325142376 L 415 1664 L 419.209517756016 1653.837325142376"></path></g><g transform="translate(-318,-14) scale(1,1)"><path fill="none" stroke="#000000" d="M 410.790482243984 1653.837325142376 L 415 1664 L 419.209517756016 1653.837325142376 L 410.790482243984 1653.837325142376" stroke-miterlimit="10"></path></g><g transform="translate(-318,-14) scale(1,1)"><g><path fill="none" stroke="none"></path><text fill="#000000" stroke="none" font-family="Arial" font-size="13px" font-style="normal" font-weight="normal" text-decoration="none" x="431" y="1634">False</text></g></g><g transform="translate(-318,-14) scale(1,1)"><path fill="none" stroke="#000000" d="M 408 1351 L 408 1384" stroke-miterlimit="10"></path></g><g transform="translate(-318,-14) scale(1,1)"><path fill="#000000" stroke="none" d="M 403.790482243984 1373.837325142376 L 408 1384 L 412.209517756016 1373.837325142376"></path></g><g transform="translate(-318,-14) scale(1,1)"><path fill="none" stroke="#000000" d="M 403.790482243984 1373.837325142376 L 408 1384 L 412.209517756016 1373.837325142376 L 403.790482243984 1373.837325142376" stroke-miterlimit="10"></path></g><g transform="translate(-318,-14) scale(1,1)"><g><path fill="none" stroke="none"></path><text fill="#000000" stroke="none" font-family="Arial" font-size="13px" font-style="normal" font-weight="normal" text-decoration="none" x="430" y="1373">False</text></g></g><g transform="translate(-318,-14) scale(1,1)"><rect fill="#ffffff" stroke="none" x="344" y="1720" width="143" height="48"></rect></g><g transform="translate(-318,-14) scale(1,1)"><path fill="none" stroke="#000000" d="M 344 1720 L 487 1720 L 487 1768 L 344 1768 L 344 1720 Z Z" stroke-miterlimit="10"></path></g><g transform="translate(-318,-14) scale(1,1)"><g><path fill="none" stroke="none"></path><text fill="#000000" stroke="none" font-family="Arial" font-size="13px" font-style="normal" font-weight="normal" text-decoration="none" x="382.5" y="1742.5">print: rabat,</text><text fill="#000000" stroke="none" font-family="Arial" font-size="13px" font-style="normal" font-weight="normal" text-decoration="none" x="366" y="1755.5">forsendelse, total</text></g></g><g transform="translate(-318,-14) scale(1,1)"><path fill="none" stroke="#000000" d="M 414 1693 L 414 1720" stroke-miterlimit="10"></path></g><g transform="translate(-318,-14) scale(1,1)"><path fill="#000000" stroke="none" d="M 409.790482243984 1709.837325142376 L 414 1720 L 418.209517756016 1709.837325142376"></path></g><g transform="translate(-318,-14) scale(1,1)"><path fill="none" stroke="#000000" d="M 409.790482243984 1709.837325142376 L 414 1720 L 418.209517756016 1709.837325142376 L 409.790482243984 1709.837325142376" stroke-miterlimit="10"></path></g><g transform="translate(-318,-14) scale(1,1)"><path fill="none" stroke="#000000" d="M 417 1768 L 417 1808" stroke-miterlimit="10"></path></g><g transform="translate(-318,-14) scale(1,1)"><path fill="#000000" stroke="none" d="M 412.790482243984 1797.837325142376 L 417 1808 L 421.209517756016 1797.837325142376"></path></g><g transform="translate(-318,-14) scale(1,1)"><path fill="none" stroke="#000000" d="M 412.790482243984 1797.837325142376 L 417 1808 L 421.209517756016 1797.837325142376 L 412.790482243984 1797.837325142376" stroke-miterlimit="10"></path></g><g transform="translate(-318,-14) scale(1,1)"><rect fill="#ffffff" stroke="none" x="328" y="1384" width="176" height="32"></rect></g><g transform="translate(-318,-14) scale(1,1)"><path fill="none" stroke="#000000" d="M 328 1384 L 504 1384 L 504 1416 L 328 1416 L 328 1384 Z Z" stroke-miterlimit="10"></path></g><g transform="translate(-318,-14) scale(1,1)"><g><path fill="none" stroke="none"></path><text fill="#000000" stroke="none" font-family="Arial" font-size="13px" font-style="normal" font-weight="normal" text-decoration="none" x="389" y="1406.5">print total</text></g></g><g transform="translate(-318,-14) scale(1,1)"><path fill="none" stroke="#000000" d="M 414 1416 L 414 1448" stroke-miterlimit="10"></path></g><g transform="translate(-318,-14) scale(1,1)"><path fill="#000000" stroke="none" d="M 409.790482243984 1437.837325142376 L 414 1448 L 418.209517756016 1437.837325142376"></path></g><g transform="translate(-318,-14) scale(1,1)"><path fill="none" stroke="#000000" d="M 409.790482243984 1437.837325142376 L 414 1448 L 418.209517756016 1437.837325142376 L 409.790482243984 1437.837325142376" stroke-miterlimit="10"></path></g><g transform="translate(-318,-14) scale(1,1)"><path fill="#ffffff" stroke="none" d="M 472 429.5 L 600 352 L 728 429.5 L 600 507 L 472 429.5"></path></g><g transform="translate(-318,-14) scale(1,1)"><path fill="none" stroke="#000000" d="M 472 429.5 L 600 352 L 728 429.5 L 600 507 L 472 429.5 L 472 429.5" stroke-miterlimit="10"></path></g><g transform="translate(-318,-14) scale(1,1)"><g><path fill="none" stroke="none"></path><text fill="#000000" stroke="none" font-family="Arial" font-size="13px" font-style="normal" font-weight="normal" text-decoration="none" x="538" y="410">pris &lt;= 100 &amp;&amp;         </text><text fill="#000000" stroke="none" font-family="Arial" font-size="13px" font-style="normal" font-weight="normal" text-decoration="none" x="549" y="423">   pris &gt; 0 &amp;&amp;      </text><text fill="#000000" stroke="none" font-family="Arial" font-size="13px" font-style="normal" font-weight="normal" text-decoration="none" x="537.5" y="436">vareNr &gt;= 3 &amp;&amp;         </text><text fill="#000000" stroke="none" font-family="Arial" font-size="13px" font-style="normal" font-weight="normal" text-decoration="none" x="538" y="449">vareNr &lt;= 23 &amp;&amp;       </text><text fill="#000000" stroke="none" font-family="Arial" font-size="13px" font-style="normal" font-weight="normal" text-decoration="none" x="570.5" y="462">antal &lt;= 5</text></g></g><g transform="translate(-318,-14) scale(1,1)"><path fill="#ffffff" stroke="none" d="M 798 392 L 952 392 L 922 488 L 768 488 L 798 392"></path></g><g transform="translate(-318,-14) scale(1,1)"><path fill="none" stroke="#000000" d="M 798 392 L 952 392 L 922 488 L 768 488 L 798 392 L 798 392" stroke-miterlimit="10"></path></g><g transform="translate(-318,-14) scale(1,1)"><g><path fill="none" stroke="none"></path><text fill="#000000" stroke="none" font-family="Arial" font-size="13px" font-style="normal" font-weight="normal" text-decoration="none" x="809.5" y="414.5">"Prisen skal ligge</text><text fill="#000000" stroke="none" font-family="Arial" font-size="13px" font-style="normal" font-weight="normal" text-decoration="none" x="810" y="427.5">mellem 1 og 100,</text><text fill="#000000" stroke="none" font-family="Arial" font-size="13px" font-style="normal" font-weight="normal" text-decoration="none" x="825" y="440.5">varenummer</text><text fill="#000000" stroke="none" font-family="Arial" font-size="13px" font-style="normal" font-weight="normal" text-decoration="none" x="815.5" y="453.5">mellem 3 og 23</text><text fill="#000000" stroke="none" font-family="Arial" font-size="13px" font-style="normal" font-weight="normal" text-decoration="none" x="811" y="466.5">og antal maks 5"</text></g></g><g transform="translate(-318,-14) scale(1,1)"><path fill="none" stroke="#000000" d="M 728 436 L 768 436" stroke-miterlimit="10"></path></g><g transform="translate(-318,-14) scale(1,1)"><path fill="#000000" stroke="none" d="M 757.8373251423759 440.209517756016 L 768 436 L 757.8373251423758 431.790482243984"></path></g><g transform="translate(-318,-14) scale(1,1)"><path fill="none" stroke="#000000" d="M 757.8373251423759 440.209517756016 L 768 436 L 757.8373251423758 431.790482243984 L 757.8373251423759 440.209517756016" stroke-miterlimit="10"></path></g><g transform="translate(-318,-14) scale(1,1)"><g><path fill="none" stroke="none"></path><text fill="#000000" stroke="none" font-family="Arial" font-size="13px" font-style="normal" font-weight="normal" text-decoration="none" x="735" y="428">false</text></g></g><g transform="translate(-318,-14) scale(1,1)"><path fill="none" stroke="#000000" d="M 848 392 L 848 256 M 848 256 A 8 8 0 0 0 840 248 L 679 248" stroke-miterlimit="10"></path></g><g transform="translate(-318,-14) scale(1,1)"><path fill="#000000" stroke="none" d="M 689.1626748576241 243.790482243984 L 679 248 L 689.1626748576241 252.209517756016"></path></g><g transform="translate(-318,-14) scale(1,1)"><path fill="none" stroke="#000000" d="M 689.1626748576241 243.790482243984 L 679 248 L 689.1626748576241 252.209517756016 L 689.1626748576241 243.790482243984" stroke-miterlimit="10"></path></g></g></svg>