<svg version="1.1" xmlns="http://www.w3.org/2000/svg" xmlns:xlink="http://www.w3.org/1999/xlink" width="428" height="1139"><defs/><g><g transform="translate(-318,-30) scale(1,1)"><path fill="#ffffff" stroke="none" d="M 376.5 40 L 470.5 40 Q 487 40 487 56.5 L 487 55.5 Q 487 72 470.5 72 L 376.5 72 Q 360 72 360 55.5 L 360 56.5 Q 360 40 376.5 40 Z"/></g><g transform="translate(-318,-30) scale(1,1)"><path fill="none" stroke="#000000" d="M 376.5 40 L 470.5 40 Q 487 40 487 56.5 L 487 55.5 Q 487 72 470.5 72 L 376.5 72 Q 360 72 360 55.5 L 360 56.5 Q 360 40 376.5 40 Z" stroke-miterlimit="10"/></g><g transform="translate(-318,-30) scale(1,1)"><g><path fill="none" stroke="none"/><text fill="#000000" stroke="none" font-family="Arial" font-size="13px" font-style="normal" font-weight="normal" text-decoration="none" x="409.5" y="62.5">Start</text></g></g><g transform="translate(-318,-30) scale(1,1)"><path fill="#ffffff" stroke="none" d="M 361 112 L 528 112 L 495 183 L 328 183 L 361 112"/></g><g transform="translate(-318,-30) scale(1,1)"><path fill="none" stroke="#000000" d="M 361 112 L 528 112 L 495 183 L 328 183 L 361 112 L 361 112" stroke-miterlimit="10"/></g><g transform="translate(-318,-30) scale(1,1)"><g><path fill="none" stroke="none"/><text fill="#000000" stroke="none" font-family="Arial" font-size="13px" font-style="normal" font-weight="normal" text-decoration="none" x="378" y="134.5">int counter = 0;   </text><text fill="#000000" stroke="none" font-family="Arial" font-size="13px" font-style="normal" font-weight="normal" text-decoration="none" x="372.5" y="147.5">int maksBest = 10;</text><text fill="#000000" stroke="none" font-family="Arial" font-size="13px" font-style="normal" font-weight="normal" text-decoration="none" x="371.5" y="160.5">   int flereVarer = 1;</text><text fill="#000000" stroke="none" font-family="Arial" font-size="13px" font-style="normal" font-weight="normal" text-decoration="none" x="391" y="173.5"> int total = 0;</text></g></g><g transform="translate(-318,-30) scale(1,1)"><path fill="#ffffff" stroke="none" d="M 528 182 L 679 168 L 679 255 L 528 255 L 528 182"/></g><g transform="translate(-318,-30) scale(1,1)"><path fill="none" stroke="#000000" d="M 528 182 L 679 168 L 679 255 L 528 255 L 528 182 L 528 182" stroke-miterlimit="10"/></g><g transform="translate(-318,-30) scale(1,1)"><g><path fill="none" stroke="none"/><text fill="#000000" stroke="none" font-family="Arial" font-size="13px" font-style="normal" font-weight="normal" text-decoration="none" x="550" y="225">vareNr; pris; antal;</text></g></g><g transform="translate(-318,-30) scale(1,1)"><path fill="#ffffff" stroke="none" d="M 562 280 L 656 280 L 638 352 L 544 352 L 562 280"/></g><g transform="translate(-318,-30) scale(1,1)"><path fill="none" stroke="#000000" d="M 562 280 L 656 280 L 638 352 L 544 352 L 562 280 L 562 280" stroke-miterlimit="10"/></g><g transform="translate(-318,-30) scale(1,1)"><g><path fill="none" stroke="none"/><text fill="#000000" stroke="none" font-family="Arial" font-size="13px" font-style="normal" font-weight="normal" text-decoration="none" x="573" y="302.5">gem data</text><text fill="#000000" stroke="none" font-family="Arial" font-size="13px" font-style="normal" font-weight="normal" text-decoration="none" x="575" y="315.5">vareNr[];</text><text fill="#000000" stroke="none" font-family="Arial" font-size="13px" font-style="normal" font-weight="normal" text-decoration="none" x="583.5" y="328.5">pris[];</text><text fill="#000000" stroke="none" font-family="Arial" font-size="13px" font-style="normal" font-weight="normal" text-decoration="none" x="580" y="341.5">antal[];</text></g></g><g transform="translate(-318,-30) scale(1,1)"><rect fill="#ffffff" stroke="none" x="544" y="384" width="103" height="39"/></g><g transform="translate(-318,-30) scale(1,1)"><path fill="none" stroke="#000000" d="M 544 384 L 647 384 L 647 423 L 544 423 L 544 384 Z Z" stroke-miterlimit="10"/></g><g transform="translate(-318,-30) scale(1,1)"><g><path fill="none" stroke="none"/><text fill="#000000" stroke="none" font-family="Arial" font-size="13px" font-style="normal" font-weight="normal" text-decoration="none" x="566" y="406.5">counter++</text></g></g><g transform="translate(-318,-30) scale(1,1)"><path fill="#ffffff" stroke="none" d="M 552 468 L 639 456 L 639 527 L 552 527 L 552 468"/></g><g transform="translate(-318,-30) scale(1,1)"><path fill="none" stroke="#000000" d="M 552 468 L 639 456 L 639 527 L 552 527 L 552 468 L 552 468" stroke-miterlimit="10"/></g><g transform="translate(-318,-30) scale(1,1)"><g><path fill="none" stroke="none"/><text fill="#000000" stroke="none" font-family="Arial" font-size="13px" font-style="normal" font-weight="normal" text-decoration="none" x="567.5" y="504">flereVarer</text></g></g><g transform="translate(-318,-30) scale(1,1)"><path fill="#ffffff" stroke="none" d="M 344 488 L 420 432 L 496 488 L 420 544 L 344 488"/></g><g transform="translate(-318,-30) scale(1,1)"><path fill="none" stroke="#000000" d="M 344 488 L 420 432 L 496 488 L 420 544 L 344 488 L 344 488" stroke-miterlimit="10"/></g><g transform="translate(-318,-30) scale(1,1)"><g><path fill="none" stroke="none"/><text fill="#000000" stroke="none" font-family="Arial" font-size="13px" font-style="normal" font-weight="normal" text-decoration="none" x="392.5" y="475">counter &lt;</text><text fill="#000000" stroke="none" font-family="Arial" font-size="13px" font-style="normal" font-weight="normal" text-decoration="none" x="390.5" y="488">maksBest</text><text fill="#000000" stroke="none" font-family="Arial" font-size="13px" font-style="normal" font-weight="normal" text-decoration="none" x="411" y="501">&amp;&amp;</text><text fill="#000000" stroke="none" font-family="Arial" font-size="13px" font-style="normal" font-weight="normal" text-decoration="none" x="392" y="514">flereVarer</text></g></g><g transform="translate(-318,-30) scale(1,1)"><path fill="none" stroke="#000000" d="M 424 72 L 424 112" stroke-miterlimit="10"/></g><g transform="translate(-318,-30) scale(1,1)"><path fill="#000000" stroke="none" d="M 419.790482243984 101.83732514237585 L 424 112 L 428.209517756016 101.83732514237585"/></g><g transform="translate(-318,-30) scale(1,1)"><path fill="none" stroke="#000000" d="M 419.790482243984 101.83732514237585 L 424 112 L 428.209517756016 101.83732514237585 L 419.790482243984 101.83732514237585" stroke-miterlimit="10"/></g><g transform="translate(-318,-30) scale(1,1)"><path fill="none" stroke="#000000" d="M 600 255 L 600 280" stroke-miterlimit="10"/></g><g transform="translate(-318,-30) scale(1,1)"><path fill="#000000" stroke="none" d="M 595.790482243984 269.83732514237585 L 600 280 L 604.209517756016 269.83732514237585"/></g><g transform="translate(-318,-30) scale(1,1)"><path fill="none" stroke="#000000" d="M 595.790482243984 269.83732514237585 L 600 280 L 604.209517756016 269.83732514237585 L 595.790482243984 269.83732514237585" stroke-miterlimit="10"/></g><g transform="translate(-318,-30) scale(1,1)"><path fill="none" stroke="#000000" d="M 600 352 L 600 384" stroke-miterlimit="10"/></g><g transform="translate(-318,-30) scale(1,1)"><path fill="#000000" stroke="none" d="M 595.790482243984 373.83732514237585 L 600 384 L 604.209517756016 373.83732514237585"/></g><g transform="translate(-318,-30) scale(1,1)"><path fill="none" stroke="#000000" d="M 595.790482243984 373.83732514237585 L 600 384 L 604.209517756016 373.83732514237585 L 595.790482243984 373.83732514237585" stroke-miterlimit="10"/></g><g transform="translate(-318,-30) scale(1,1)"><path fill="none" stroke="#000000" d="M 600 423 L 600 456" stroke-miterlimit="10"/></g><g transform="translate(-318,-30) scale(1,1)"><path fill="#000000" stroke="none" d="M 595.790482243984 445.83732514237585 L 600 456 L 604.209517756016 445.83732514237585"/></g><g transform="translate(-318,-30) scale(1,1)"><path fill="none" stroke="#000000" d="M 595.790482243984 445.83732514237585 L 600 456 L 604.209517756016 445.83732514237585 L 595.790482243984 445.83732514237585" stroke-miterlimit="10"/></g><g transform="translate(-318,-30) scale(1,1)"><path fill="none" stroke="#000000" d="M 552 491 L 496 491" stroke-miterlimit="10"/></g><g transform="translate(-318,-30) scale(1,1)"><path fill="#000000" stroke="none" d="M 506.16267485762415 486.790482243984 L 496 491 L 506.16267485762415 495.209517756016"/></g><g transform="translate(-318,-30) scale(1,1)"><path fill="none" stroke="#000000" d="M 506.16267485762415 486.790482243984 L 496 491 L 506.16267485762415 495.209517756016 L 506.16267485762415 486.790482243984" stroke-miterlimit="10"/></g><g transform="translate(-318,-30) scale(1,1)"><path fill="#ffffff" stroke="none" d="M 408 223.5 C 408 214.9395856 414.9395856 208 423.5 208 C 432.0604144 208 439 214.9395856 439 223.5 C 439 232.0604144 432.0604144 239 423.5 239 C 414.9395856 239 408 232.0604144 408 223.5 Z"/></g><g transform="translate(-318,-30) scale(1,1)"><path fill="none" stroke="#000000" d="M 408 223.5 C 408 214.9395856 414.9395856 208 423.5 208 C 432.0604144 208 439 214.9395856 439 223.5 C 439 232.0604144 432.0604144 239 423.5 239 C 414.9395856 239 408 232.0604144 408 223.5 Z" stroke-miterlimit="10"/></g><g transform="translate(-318,-30) scale(1,1)"><g><path fill="none" stroke="none"/></g></g><g transform="translate(-318,-30) scale(1,1)"><path fill="none" stroke="#000000" d="M 423 432 L 423 239" stroke-miterlimit="10"/></g><g transform="translate(-318,-30) scale(1,1)"><path fill="#000000" stroke="none" d="M 427.209517756016 249.16267485762415 L 423 239 L 418.790482243984 249.16267485762415"/></g><g transform="translate(-318,-30) scale(1,1)"><path fill="none" stroke="#000000" d="M 427.209517756016 249.16267485762415 L 423 239 L 418.790482243984 249.16267485762415 L 427.209517756016 249.16267485762415" stroke-miterlimit="10"/></g><g transform="translate(-318,-30) scale(1,1)"><g><path fill="none" stroke="none"/><text fill="#000000" stroke="none" font-family="Arial" font-size="13px" font-style="normal" font-weight="normal" text-decoration="none" x="383" y="349">True</text></g></g><g transform="translate(-318,-30) scale(1,1)"><path fill="none" stroke="#000000" d="M 439 222 L 528 222" stroke-miterlimit="10"/></g><g transform="translate(-318,-30) scale(1,1)"><path fill="#000000" stroke="none" d="M 517.8373251423759 226.209517756016 L 528 222 L 517.8373251423758 217.790482243984"/></g><g transform="translate(-318,-30) scale(1,1)"><path fill="none" stroke="#000000" d="M 517.8373251423759 226.209517756016 L 528 222 L 517.8373251423758 217.790482243984 L 517.8373251423759 226.209517756016" stroke-miterlimit="10"/></g><g transform="translate(-318,-30) scale(1,1)"><path fill="none" stroke="#000000" d="M 424 183 L 424 208" stroke-miterlimit="10"/></g><g transform="translate(-318,-30) scale(1,1)"><path fill="#000000" stroke="none" d="M 419.790482243984 197.83732514237585 L 424 208 L 428.209517756016 197.83732514237585"/></g><g transform="translate(-318,-30) scale(1,1)"><path fill="none" stroke="#000000" d="M 419.790482243984 197.83732514237585 L 424 208 L 428.209517756016 197.83732514237585 L 419.790482243984 197.83732514237585" stroke-miterlimit="10"/></g><g transform="translate(-318,-30) scale(1,1)"><path fill="#ffffff" stroke="none" d="M 360 623.5 L 418.5 576 L 477 623.5 L 418.5 671 L 360 623.5"/></g><g transform="translate(-318,-30) scale(1,1)"><path fill="none" stroke="#000000" d="M 360 623.5 L 418.5 576 L 477 623.5 L 418.5 671 L 360 623.5 L 360 623.5" stroke-miterlimit="10"/></g><g transform="translate(-318,-30) scale(1,1)"><g><path fill="none" stroke="none"/><text fill="#000000" stroke="none" font-family="Arial" font-size="13px" font-style="normal" font-weight="normal" text-decoration="none" x="397" y="617">counter</text><text fill="#000000" stroke="none" font-family="Arial" font-size="13px" font-style="normal" font-weight="normal" text-decoration="none" x="410.5" y="630">&gt;=</text><text fill="#000000" stroke="none" font-family="Arial" font-size="13px" font-style="normal" font-weight="normal" text-decoration="none" x="389" y="643">maksBest</text></g></g><g transform="translate(-318,-30) scale(1,1)"><path fill="#ffffff" stroke="none" d="M 532 656 L 671 656 L 643 714 L 504 714 L 532 656"/></g><g transform="translate(-318,-30) scale(1,1)"><path fill="none" stroke="#000000" d="M 532 656 L 671 656 L 643 714 L 504 714 L 532 656 L 532 656" stroke-miterlimit="10"/></g><g transform="translate(-318,-30) scale(1,1)"><g><path fill="none" stroke="none"/><text fill="#000000" stroke="none" font-family="Arial" font-size="13px" font-style="normal" font-weight="normal" text-decoration="none" x="569" y="678.5">"Maks</text><text fill="#000000" stroke="none" font-family="Arial" font-size="13px" font-style="normal" font-weight="normal" text-decoration="none" x="554.5" y="691.5">bestilling er</text><text fill="#000000" stroke="none" font-family="Arial" font-size="13px" font-style="normal" font-weight="normal" text-decoration="none" x="569" y="704.5">naaet"</text></g></g><g transform="translate(-318,-30) scale(1,1)"><path fill="none" stroke="#000000" d="M 419 544 L 419 576" stroke-miterlimit="10"/></g><g transform="translate(-318,-30) scale(1,1)"><path fill="#000000" stroke="none" d="M 414.790482243984 565.8373251423759 L 419 576 L 423.209517756016 565.8373251423759"/></g><g transform="translate(-318,-30) scale(1,1)"><path fill="none" stroke="#000000" d="M 414.790482243984 565.8373251423759 L 419 576 L 423.209517756016 565.8373251423759 L 414.790482243984 565.8373251423759" stroke-miterlimit="10"/></g><g transform="translate(-318,-30) scale(1,1)"><g><path fill="none" stroke="none"/><text fill="#000000" stroke="none" font-family="Arial" font-size="13px" font-style="normal" font-weight="normal" text-decoration="none" x="431" y="558">False</text></g></g><g transform="translate(-318,-30) scale(1,1)"><rect fill="#ffffff" stroke="none" x="384" y="776" width="64" height="32"/></g><g transform="translate(-318,-30) scale(1,1)"><path fill="none" stroke="#000000" d="M 384 776 L 448 776 L 448 808 L 384 808 L 384 776 Z Z" stroke-miterlimit="10"/></g><g transform="translate(-318,-30) scale(1,1)"><g><path fill="none" stroke="none"/><text fill="#000000" stroke="none" font-family="Arial" font-size="13px" font-style="normal" font-weight="normal" text-decoration="none" x="403" y="798.5">i = 0</text></g></g><g transform="translate(-318,-30) scale(1,1)"><path fill="#ffffff" stroke="none" d="M 368 1059.5 L 410.5 1024 L 453 1059.5 L 410.5 1095 L 368 1059.5"/></g><g transform="translate(-318,-30) scale(1,1)"><path fill="none" stroke="#000000" d="M 368 1059.5 L 410.5 1024 L 453 1059.5 L 410.5 1095 L 368 1059.5 L 368 1059.5" stroke-miterlimit="10"/></g><g transform="translate(-318,-30) scale(1,1)"><g><path fill="none" stroke="none"/><text fill="#000000" stroke="none" font-family="Arial" font-size="13px" font-style="normal" font-weight="normal" text-decoration="none" x="403" y="1059.5">i &lt;</text><text fill="#000000" stroke="none" font-family="Arial" font-size="13px" font-style="normal" font-weight="normal" text-decoration="none" x="389" y="1072.5">counter</text></g></g><g transform="translate(-318,-30) scale(1,1)"><path fill="#ffffff" stroke="none" d="M 392 739.5 C 392 728.7304464 400.7304464 720 411.5 720 C 422.2695536 720 431 728.7304464 431 739.5 C 431 750.2695536 422.2695536 759 411.5 759 C 400.7304464 759 392 750.2695536 392 739.5 Z"/></g><g transform="translate(-318,-30) scale(1,1)"><path fill="none" stroke="#000000" d="M 392 739.5 C 392 728.7304464 400.7304464 720 411.5 720 C 422.2695536 720 431 728.7304464 431 739.5 C 431 750.2695536 422.2695536 759 411.5 759 C 400.7304464 759 392 750.2695536 392 739.5 Z" stroke-miterlimit="10"/></g><g transform="translate(-318,-30) scale(1,1)"><g><path fill="none" stroke="none"/></g></g><g transform="translate(-318,-30) scale(1,1)"><path fill="none" stroke="#000000" d="M 414 671 L 414 720" stroke-miterlimit="10"/></g><g transform="translate(-318,-30) scale(1,1)"><path fill="#000000" stroke="none" d="M 409.790482243984 709.8373251423759 L 414 720 L 418.209517756016 709.8373251423759"/></g><g transform="translate(-318,-30) scale(1,1)"><path fill="none" stroke="#000000" d="M 409.790482243984 709.8373251423759 L 414 720 L 418.209517756016 709.8373251423759 L 409.790482243984 709.8373251423759" stroke-miterlimit="10"/></g><g transform="translate(-318,-30) scale(1,1)"><g><path fill="none" stroke="none"/><text fill="#000000" stroke="none" font-family="Arial" font-size="13px" font-style="normal" font-weight="normal" text-decoration="none" x="420" y="701">False</text></g></g><g transform="translate(-318,-30) scale(1,1)"><path fill="none" stroke="#000000" d="M 477 624 L 576 624 M 576 624 A 8 8 0 0 1 584 632 L 584 656" stroke-miterlimit="10"/></g><g transform="translate(-318,-30) scale(1,1)"><path fill="#000000" stroke="none" d="M 579.790482243984 645.8373251423759 L 584 656 L 588.209517756016 645.8373251423759"/></g><g transform="translate(-318,-30) scale(1,1)"><path fill="none" stroke="#000000" d="M 579.790482243984 645.8373251423759 L 584 656 L 588.209517756016 645.8373251423759 L 579.790482243984 645.8373251423759" stroke-miterlimit="10"/></g><g transform="translate(-318,-30) scale(1,1)"><g><path fill="none" stroke="none"/><text fill="#000000" stroke="none" font-family="Arial" font-size="13px" font-style="normal" font-weight="normal" text-decoration="none" x="506" y="612">True</text></g></g><g transform="translate(-318,-30) scale(1,1)"><path fill="none" stroke="#000000" d="M 584 714 L 584 736 M 584 736 A 8 8 0 0 1 576 744 L 431 744" stroke-miterlimit="10"/></g><g transform="translate(-318,-30) scale(1,1)"><path fill="#000000" stroke="none" d="M 441.16267485762415 739.790482243984 L 431 744 L 441.16267485762415 748.209517756016"/></g><g transform="translate(-318,-30) scale(1,1)"><path fill="none" stroke="#000000" d="M 441.16267485762415 739.790482243984 L 431 744 L 441.16267485762415 748.209517756016 L 441.16267485762415 739.790482243984" stroke-miterlimit="10"/></g><g transform="translate(-318,-30) scale(1,1)"><rect fill="#ffffff" stroke="none" x="616" y="952" width="72" height="72"/></g><g transform="translate(-318,-30) scale(1,1)"><path fill="none" stroke="#000000" d="M 616 952 L 688 952 L 688 1024 L 616 1024 L 616 952 Z Z" stroke-miterlimit="10"/></g><g transform="translate(-318,-30) scale(1,1)"><g><path fill="none" stroke="none"/><text fill="#000000" stroke="none" font-family="Arial" font-size="13px" font-style="normal" font-weight="normal" text-decoration="none" x="639.5" y="974.5">print</text><text fill="#000000" stroke="none" font-family="Arial" font-size="13px" font-style="normal" font-weight="normal" text-decoration="none" x="625.5" y="987.5">vareNr[i];</text><text fill="#000000" stroke="none" font-family="Arial" font-size="13px" font-style="normal" font-weight="normal" text-decoration="none" x="634" y="1000.5">pris[i];</text><text fill="#000000" stroke="none" font-family="Arial" font-size="13px" font-style="normal" font-weight="normal" text-decoration="none" x="630.5" y="1013.5">antal[i];</text></g></g><g transform="translate(-318,-30) scale(1,1)"><path fill="#ffffff" stroke="none" d="M 400 846.5 C 400 838.4918704 406.4918704 832 414.5 832 C 422.5081296 832 429 838.4918704 429 846.5 C 429 854.5081296 422.5081296 861 414.5 861 C 406.4918704 861 400 854.5081296 400 846.5 Z"/></g><g transform="translate(-318,-30) scale(1,1)"><path fill="none" stroke="#000000" d="M 400 846.5 C 400 838.4918704 406.4918704 832 414.5 832 C 422.5081296 832 429 838.4918704 429 846.5 C 429 854.5081296 422.5081296 861 414.5 861 C 406.4918704 861 400 854.5081296 400 846.5 Z" stroke-miterlimit="10"/></g><g transform="translate(-318,-30) scale(1,1)"><g><path fill="none" stroke="none"/></g></g><g transform="translate(-318,-30) scale(1,1)"><path fill="none" stroke="#000000" d="M 413 759 L 413 776" stroke-miterlimit="10"/></g><g transform="translate(-318,-30) scale(1,1)"><path fill="#000000" stroke="none" d="M 408.790482243984 765.8373251423759 L 413 776 L 417.209517756016 765.8373251423759"/></g><g transform="translate(-318,-30) scale(1,1)"><path fill="none" stroke="#000000" d="M 408.790482243984 765.8373251423759 L 413 776 L 417.209517756016 765.8373251423759 L 408.790482243984 765.8373251423759" stroke-miterlimit="10"/></g><g transform="translate(-318,-30) scale(1,1)"><rect fill="#ffffff" stroke="none" x="504" y="832" width="48" height="32"/></g><g transform="translate(-318,-30) scale(1,1)"><path fill="none" stroke="#000000" d="M 504 832 L 552 832 L 552 864 L 504 864 L 504 832 Z Z" stroke-miterlimit="10"/></g><g transform="translate(-318,-30) scale(1,1)"><g><path fill="none" stroke="none"/><text fill="#000000" stroke="none" font-family="Arial" font-size="13px" font-style="normal" font-weight="normal" text-decoration="none" x="518.5" y="854.5">i++</text></g></g><g transform="translate(-318,-30) scale(1,1)"><path fill="none" stroke="#000000" d="M 504 848 L 429 848" stroke-miterlimit="10"/></g><g transform="translate(-318,-30) scale(1,1)"><path fill="#000000" stroke="none" d="M 439.16267485762415 843.790482243984 L 429 848 L 439.16267485762415 852.209517756016"/></g><g transform="translate(-318,-30) scale(1,1)"><path fill="none" stroke="#000000" d="M 439.16267485762415 843.790482243984 L 429 848 L 439.16267485762415 852.209517756016 L 439.16267485762415 843.790482243984" stroke-miterlimit="10"/></g><g transform="translate(-318,-30) scale(1,1)"><path fill="none" stroke="#000000" d="M 415 808 L 415 832" stroke-miterlimit="10"/></g><g transform="translate(-318,-30) scale(1,1)"><path fill="#000000" stroke="none" d="M 410.790482243984 821.8373251423759 L 415 832 L 419.209517756016 821.8373251423759"/></g><g transform="translate(-318,-30) scale(1,1)"><path fill="none" stroke="#000000" d="M 410.790482243984 821.8373251423759 L 415 832 L 419.209517756016 821.8373251423759 L 410.790482243984 821.8373251423759" stroke-miterlimit="10"/></g><g transform="translate(-318,-30) scale(1,1)"><path fill="none" stroke="#000000" d="M 413 861 L 413 1024" stroke-miterlimit="10"/></g><g transform="translate(-318,-30) scale(1,1)"><path fill="#000000" stroke="none" d="M 408.790482243984 1013.8373251423759 L 413 1024 L 417.209517756016 1013.8373251423759"/></g><g transform="translate(-318,-30) scale(1,1)"><path fill="none" stroke="#000000" d="M 408.790482243984 1013.8373251423759 L 413 1024 L 417.209517756016 1013.8373251423759 L 408.790482243984 1013.8373251423759" stroke-miterlimit="10"/></g><g transform="translate(-318,-30) scale(1,1)"><path fill="none" stroke="#000000" d="M 453 1060 L 636 1060 M 636 1060 A 8 8 0 0 0 644 1052 L 644 1024" stroke-miterlimit="10"/></g><g transform="translate(-318,-30) scale(1,1)"><path fill="#000000" stroke="none" d="M 648.209517756016 1034.162674857624 L 644 1024 L 639.790482243984 1034.162674857624"/></g><g transform="translate(-318,-30) scale(1,1)"><path fill="none" stroke="#000000" d="M 648.209517756016 1034.162674857624 L 644 1024 L 639.790482243984 1034.162674857624 L 648.209517756016 1034.162674857624" stroke-miterlimit="10"/></g><g transform="translate(-318,-30) scale(1,1)"><g><path fill="none" stroke="none"/><text fill="#000000" stroke="none" font-family="Arial" font-size="13px" font-style="normal" font-weight="normal" text-decoration="none" x="526" y="1045">True</text></g></g><g transform="translate(-318,-30) scale(1,1)"><path fill="#ffffff" stroke="none" d="M 372 1120 L 451 1120 Q 471 1120 471 1140 L 471 1139 Q 471 1159 451 1159 L 372 1159 Q 352 1159 352 1139 L 352 1140 Q 352 1120 372 1120 Z"/></g><g transform="translate(-318,-30) scale(1,1)"><path fill="none" stroke="#000000" d="M 372 1120 L 451 1120 Q 471 1120 471 1140 L 471 1139 Q 471 1159 451 1159 L 372 1159 Q 352 1159 352 1139 L 352 1140 Q 352 1120 372 1120 Z" stroke-miterlimit="10"/></g><g transform="translate(-318,-30) scale(1,1)"><g><path fill="none" stroke="none"/><text fill="#000000" stroke="none" font-family="Arial" font-size="13px" font-style="normal" font-weight="normal" text-decoration="none" x="400" y="1142.5">End</text></g></g><g transform="translate(-318,-30) scale(1,1)"><path fill="none" stroke="#000000" d="M 410 1095 L 410 1120" stroke-miterlimit="10"/></g><g transform="translate(-318,-30) scale(1,1)"><path fill="#000000" stroke="none" d="M 405.790482243984 1109.837325142376 L 410 1120 L 414.209517756016 1109.837325142376"/></g><g transform="translate(-318,-30) scale(1,1)"><path fill="none" stroke="#000000" d="M 405.790482243984 1109.837325142376 L 410 1120 L 414.209517756016 1109.837325142376 L 405.790482243984 1109.837325142376" stroke-miterlimit="10"/></g><g transform="translate(-318,-30) scale(1,1)"><g><path fill="none" stroke="none"/><text fill="#000000" stroke="none" font-family="Arial" font-size="13px" font-style="normal" font-weight="normal" text-decoration="none" x="423" y="1109">False</text></g></g><g transform="translate(-318,-30) scale(1,1)"><rect fill="#ffffff" stroke="none" x="560" y="880" width="176" height="32"/></g><g transform="translate(-318,-30) scale(1,1)"><path fill="none" stroke="#000000" d="M 560 880 L 736 880 L 736 912 L 560 912 L 560 880 Z Z" stroke-miterlimit="10"/></g><g transform="translate(-318,-30) scale(1,1)"><g><path fill="none" stroke="none"/><text fill="#000000" stroke="none" font-family="Arial" font-size="13px" font-style="normal" font-weight="normal" text-decoration="none" x="581.5" y="902.5">total += pris[i] * antal[i]</text></g></g><g transform="translate(-318,-30) scale(1,1)"><path fill="none" stroke="#000000" d="M 649 952 L 649 912" stroke-miterlimit="10"/></g><g transform="translate(-318,-30) scale(1,1)"><path fill="#000000" stroke="none" d="M 653.209517756016 922.1626748576241 L 649 912 L 644.790482243984 922.1626748576241"/></g><g transform="translate(-318,-30) scale(1,1)"><path fill="none" stroke="#000000" d="M 653.209517756016 922.1626748576241 L 649 912 L 644.790482243984 922.1626748576241 L 653.209517756016 922.1626748576241" stroke-miterlimit="10"/></g><g transform="translate(-318,-30) scale(1,1)"><path fill="none" stroke="#000000" d="M 648 880 L 648 856 M 648 856 A 8 8 0 0 0 640 848 L 552 848" stroke-miterlimit="10"/></g><g transform="translate(-318,-30) scale(1,1)"><path fill="#000000" stroke="none" d="M 562.1626748576241 843.790482243984 L 552 848 L 562.1626748576241 852.209517756016"/></g><g transform="translate(-318,-30) scale(1,1)"><path fill="none" stroke="#000000" d="M 562.1626748576241 843.790482243984 L 552 848 L 562.1626748576241 852.209517756016 L 562.1626748576241 843.790482243984" stroke-miterlimit="10"/></g></g></svg>